<svg xmlns:xlink="http://www.w3.org/1999/xlink" xmlns="http://www.w3.org/2000/svg" width="426.027812pt" height="325.986375pt" viewBox="0 0 426.027812 325.986375" version="1.1">
 <metadata>
  <rdf:RDF xmlns:dc="http://purl.org/dc/elements/1.1/" xmlns:cc="http://creativecommons.org/ns#" xmlns:rdf="http://www.w3.org/1999/02/22-rdf-syntax-ns#">
   <cc:Work>
    <dc:type rdf:resource="http://purl.org/dc/dcmitype/StillImage"/>
    <dc:date>2025-10-30T15:13:02.946678</dc:date>
    <dc:format>image/svg+xml</dc:format>
    <dc:creator>
     <cc:Agent>
      <dc:title>Matplotlib v3.7.5, https://matplotlib.org/</dc:title>
     </cc:Agent>
    </dc:creator>
   </cc:Work>
  </rdf:RDF>
 </metadata>
 <defs>
  <style type="text/css">*{stroke-linejoin: round; stroke-linecap: butt}</style>
 </defs>
 <g id="figure_1">
  <g id="patch_1">
   <path d="M 0 325.986375  L 426.027812 325.986375  L 426.027812 0  L 0 0  z " style="fill: #ffffff"/>
  </g>
  <g id="axes_1">
   <g id="patch_2">
    <path d="M 61.707813 288.430125  L 418.827813 288.430125  L 418.827813 22.318125  L 61.707813 22.318125  z " style="fill: #ffffff"/>
   </g>
   <g id="PathCollection_1">
    <path d="M 340.582465 210.284821  C 341.378075 210.284821 342.141205 209.968722 342.703786 209.406142  C 343.266366 208.843561 343.582465 208.080431 343.582465 207.284821  C 343.582465 206.489212 343.266366 205.726082 342.703786 205.163501  C 342.141205 204.60092 341.378075 204.284821 340.582465 204.284821  C 339.786856 204.284821 339.023726 204.60092 338.461145 205.163501  C 337.898564 205.726082 337.582465 206.489212 337.582465 207.284821  C 337.582465 208.080431 337.898564 208.843561 338.461145 209.406142  C 339.023726 209.968722 339.786856 210.284821 340.582465 210.284821  z " clip-path="url(#p66798afa33)" style="fill: #1f77b4; stroke: #ffffff; stroke-width: 0.48"/>
    <path d="M 174.407219 159.180669  L 175.907219 157.680669  L 177.407219 159.180669  L 178.907219 157.680669  L 177.407219 156.180669  L 178.907219 154.680669  L 177.407219 153.180669  L 175.907219 154.680669  L 174.407219 153.180669  L 172.907219 154.680669  L 174.407219 156.180669  L 172.907219 157.680669  z " clip-path="url(#p66798afa33)" style="fill: #1f77b4; stroke: #ffffff; stroke-width: 0.48"/>
    <path d="M 268.860122 262.277972  L 268.860122 266.520613  L 273.102762 266.520613  L 273.102762 262.277972  z " clip-path="url(#p66798afa33)" style="fill: #1f77b4; stroke: #ffffff; stroke-width: 0.48"/>
    <path d="M 233.874296 268.11406  L 233.874296 272.3567  L 238.116936 272.3567  L 238.116936 268.11406  z " clip-path="url(#p66798afa33)" style="fill: #1f77b4; stroke: #ffffff; stroke-width: 0.48"/>
    <path d="M 269.287508 188.885137  L 269.287508 193.127778  L 273.530149 193.127778  L 273.530149 188.885137  z " clip-path="url(#p66798afa33)" style="fill: #1f77b4; stroke: #ffffff; stroke-width: 0.48"/>
    <path d="M 218.983629 268.996903  L 218.983629 273.239544  L 223.22627 273.239544  L 223.22627 268.996903  z " clip-path="url(#p66798afa33)" style="fill: #1f77b4; stroke: #ffffff; stroke-width: 0.48"/>
    <path d="M 214.091121 240.589132  L 214.091121 244.831772  L 218.333761 244.831772  L 218.333761 240.589132  z " clip-path="url(#p66798afa33)" style="fill: #1f77b4; stroke: #ffffff; stroke-width: 0.48"/>
    <path d="M 350.211593 188.857752  C 351.007202 188.857752 351.770333 188.541653 352.332913 187.979072  C 352.895494 187.416492 353.211593 186.653361 353.211593 185.857752  C 353.211593 185.062143 352.895494 184.299012 352.332913 183.736432  C 351.770333 183.173851 351.007202 182.857752 350.211593 182.857752  C 349.415984 182.857752 348.652853 183.173851 348.090273 183.736432  C 347.527692 184.299012 347.211593 185.062143 347.211593 185.857752  C 347.211593 186.653361 347.527692 187.416492 348.090273 187.979072  C 348.652853 188.541653 349.415984 188.857752 350.211593 188.857752  z " clip-path="url(#p66798afa33)" style="fill: #1f77b4; stroke: #ffffff; stroke-width: 0.48"/>
    <path d="M 251.063439 266.935596  L 251.063439 271.178236  L 255.30608 271.178236  L 255.30608 266.935596  z " clip-path="url(#p66798afa33)" style="fill: #1f77b4; stroke: #ffffff; stroke-width: 0.48"/>
    <path d="M 90.42111 194.007316  L 91.92111 192.507316  L 93.42111 194.007316  L 94.92111 192.507316  L 93.42111 191.007316  L 94.92111 189.507316  L 93.42111 188.007316  L 91.92111 189.507316  L 90.42111 188.007316  L 88.92111 189.507316  L 90.42111 191.007316  L 88.92111 192.507316  z " clip-path="url(#p66798afa33)" style="fill: #ff7f0e; stroke: #ffffff; stroke-width: 0.48"/>
    <path d="M 402.595085 172.821069  C 403.390695 172.821069 404.153825 172.50497 404.716406 171.942389  C 405.278986 171.379809 405.595085 170.616678 405.595085 169.821069  C 405.595085 169.02546 405.278986 168.262329 404.716406 167.699749  C 404.153825 167.137168 403.390695 166.821069 402.595085 166.821069  C 401.799476 166.821069 401.036346 167.137168 400.473765 167.699749  C 399.911184 168.262329 399.595085 169.02546 399.595085 169.821069  C 399.595085 170.616678 399.911184 171.379809 400.473765 171.942389  C 401.036346 172.50497 401.799476 172.821069 402.595085 172.821069  z " clip-path="url(#p66798afa33)" style="fill: #1f77b4; stroke: #ffffff; stroke-width: 0.48"/>
    <path d="M 158.339153 195.245802  L 158.339153 199.488443  L 162.581793 199.488443  L 162.581793 195.245802  z " clip-path="url(#p66798afa33)" style="fill: #1f77b4; stroke: #ffffff; stroke-width: 0.48"/>
    <path d="M 230.485186 220.832362  L 230.485186 225.075003  L 234.727826 225.075003  L 234.727826 220.832362  z " clip-path="url(#p66798afa33)" style="fill: #1f77b4; stroke: #ffffff; stroke-width: 0.48"/>
    <path d="M 84.022361 211.551157  L 85.522361 210.051157  L 87.022361 211.551157  L 88.522361 210.051157  L 87.022361 208.551157  L 88.522361 207.051157  L 87.022361 205.551157  L 85.522361 207.051157  L 84.022361 205.551157  L 82.522361 207.051157  L 84.022361 208.551157  L 82.522361 210.051157  z " clip-path="url(#p66798afa33)" style="fill: #ff7f0e; stroke: #ffffff; stroke-width: 0.48"/>
    <path d="M 276.737444 182.348672  L 276.737444 186.591313  L 280.980085 186.591313  L 280.980085 182.348672  z " clip-path="url(#p66798afa33)" style="fill: #1f77b4; stroke: #ffffff; stroke-width: 0.48"/>
    <path d="M 301.992931 169.692949  L 301.992931 173.93559  L 306.235571 173.93559  L 306.235571 169.692949  z " clip-path="url(#p66798afa33)" style="fill: #1f77b4; stroke: #ffffff; stroke-width: 0.48"/>
    <path d="M 211.376184 129.389933  L 212.876184 127.889933  L 214.376184 129.389933  L 215.876184 127.889933  L 214.376184 126.389933  L 215.876184 124.889933  L 214.376184 123.389933  L 212.876184 124.889933  L 211.376184 123.389933  L 209.876184 124.889933  L 211.376184 126.389933  L 209.876184 127.889933  z " clip-path="url(#p66798afa33)" style="fill: #1f77b4; stroke: #ffffff; stroke-width: 0.48"/>
    <path d="M 275.442013 232.516843  L 275.442013 236.759484  L 279.684654 236.759484  L 279.684654 232.516843  z " clip-path="url(#p66798afa33)" style="fill: #1f77b4; stroke: #ffffff; stroke-width: 0.48"/>
    <path d="M 131.774885 192.344495  L 131.774885 196.587136  L 136.017525 196.587136  L 136.017525 192.344495  z " clip-path="url(#p66798afa33)" style="fill: #ff7f0e; stroke: #ffffff; stroke-width: 0.48"/>
    <path d="M 102.342611 205.636317  L 103.842611 204.136317  L 105.342611 205.636317  L 106.842611 204.136317  L 105.342611 202.636317  L 106.842611 201.136317  L 105.342611 199.636317  L 103.842611 201.136317  L 102.342611 199.636317  L 100.842611 201.136317  L 102.342611 202.636317  L 100.842611 204.136317  z " clip-path="url(#p66798afa33)" style="fill: #ff7f0e; stroke: #ffffff; stroke-width: 0.48"/>
    <path d="M 191.12824 158.206989  L 191.12824 162.44963  L 195.370881 162.44963  L 195.370881 158.206989  z " clip-path="url(#p66798afa33)" style="fill: #1f77b4; stroke: #ffffff; stroke-width: 0.48"/>
    <path d="M 273.318348 248.177535  L 273.318348 252.420175  L 277.560988 252.420175  L 277.560988 248.177535  z " clip-path="url(#p66798afa33)" style="fill: #1f77b4; stroke: #ffffff; stroke-width: 0.48"/>
    <path d="M 82.536976 217.948507  L 84.036976 216.448507  L 85.536976 217.948507  L 87.036976 216.448507  L 85.536976 214.948507  L 87.036976 213.448507  L 85.536976 211.948507  L 84.036976 213.448507  L 82.536976 211.948507  L 81.036976 213.448507  L 82.536976 214.948507  L 81.036976 216.448507  z " clip-path="url(#p66798afa33)" style="fill: #ff7f0e; stroke: #ffffff; stroke-width: 0.48"/>
    <path d="M 223.707844 104.654447  L 225.207844 103.154447  L 226.707844 104.654447  L 228.207844 103.154447  L 226.707844 101.654447  L 228.207844 100.154447  L 226.707844 98.654447  L 225.207844 100.154447  L 223.707844 98.654447  L 222.207844 100.154447  L 223.707844 101.654447  L 222.207844 103.154447  z " clip-path="url(#p66798afa33)" style="fill: #1f77b4; stroke: #ffffff; stroke-width: 0.48"/>
    <path d="M 162.914897 203.884879  L 162.914897 208.127519  L 167.157537 208.127519  L 167.157537 203.884879  z " clip-path="url(#p66798afa33)" style="fill: #1f77b4; stroke: #ffffff; stroke-width: 0.48"/>
    <path d="M 244.709966 258.768673  L 244.709966 263.011314  L 248.952607 263.011314  L 248.952607 258.768673  z " clip-path="url(#p66798afa33)" style="fill: #1f77b4; stroke: #ffffff; stroke-width: 0.48"/>
    <path d="M 316.897007 242.884851  L 316.897007 247.127492  L 321.139648 247.127492  L 321.139648 242.884851  z " clip-path="url(#p66798afa33)" style="fill: #1f77b4; stroke: #ffffff; stroke-width: 0.48"/>
    <path d="M 94.952275 168.13746  L 96.452275 166.63746  L 97.952275 168.13746  L 99.452275 166.63746  L 97.952275 165.13746  L 99.452275 163.63746  L 97.952275 162.13746  L 96.452275 163.63746  L 94.952275 162.13746  L 93.452275 163.63746  L 94.952275 165.13746  L 93.452275 166.63746  z " clip-path="url(#p66798afa33)" style="fill: #ff7f0e; stroke: #ffffff; stroke-width: 0.48"/>
    <path d="M 244.06902 259.45777  L 244.06902 263.700411  L 248.311661 263.700411  L 248.311661 259.45777  z " clip-path="url(#p66798afa33)" style="fill: #1f77b4; stroke: #ffffff; stroke-width: 0.48"/>
    <path d="M 254.214254 259.366363  L 254.214254 263.609004  L 258.456895 263.609004  L 258.456895 259.366363  z " clip-path="url(#p66798afa33)" style="fill: #1f77b4; stroke: #ffffff; stroke-width: 0.48"/>
    <path d="M 192.117692 188.617464  L 193.617692 187.117464  L 195.117692 188.617464  L 196.617692 187.117464  L 195.117692 185.617464  L 196.617692 184.117464  L 195.117692 182.617464  L 193.617692 184.117464  L 192.117692 182.617464  L 190.617692 184.117464  L 192.117692 185.617464  L 190.617692 187.117464  z " clip-path="url(#p66798afa33)" style="fill: #1f77b4; stroke: #ffffff; stroke-width: 0.48"/>
    <path d="M 103.252152 207.175487  L 103.252152 211.418128  L 107.494792 211.418128  L 107.494792 207.175487  z " clip-path="url(#p66798afa33)" style="fill: #2ca02c; stroke: #ffffff; stroke-width: 0.48"/>
    <path d="M 252.638532 180.780925  L 252.638532 185.023566  L 256.881172 185.023566  L 256.881172 180.780925  z " clip-path="url(#p66798afa33)" style="fill: #1f77b4; stroke: #ffffff; stroke-width: 0.48"/>
    <path d="M 292.224372 123.346106  L 293.724372 121.846106  L 295.224372 123.346106  L 296.724372 121.846106  L 295.224372 120.346106  L 296.724372 118.846106  L 295.224372 117.346106  L 293.724372 118.846106  L 292.224372 117.346106  L 290.724372 118.846106  L 292.224372 120.346106  L 290.724372 121.846106  z " clip-path="url(#p66798afa33)" style="fill: #1f77b4; stroke: #ffffff; stroke-width: 0.48"/>
    <path d="M 223.768552 244.295204  L 223.768552 248.537844  L 228.011192 248.537844  L 228.011192 244.295204  z " clip-path="url(#p66798afa33)" style="fill: #1f77b4; stroke: #ffffff; stroke-width: 0.48"/>
    <path d="M 226.239165 242.135871  L 226.239165 246.378511  L 230.481805 246.378511  L 230.481805 242.135871  z " clip-path="url(#p66798afa33)" style="fill: #1f77b4; stroke: #ffffff; stroke-width: 0.48"/>
    <path d="M 213.536253 238.661145  L 213.536253 242.903785  L 217.778894 242.903785  L 217.778894 238.661145  z " clip-path="url(#p66798afa33)" style="fill: #1f77b4; stroke: #ffffff; stroke-width: 0.48"/>
    <path d="M 175.971029 256.81707  L 175.971029 261.059711  L 180.213669 261.059711  L 180.213669 256.81707  z " clip-path="url(#p66798afa33)" style="fill: #1f77b4; stroke: #ffffff; stroke-width: 0.48"/>
    <path d="M 364.655794 177.99987  C 365.451403 177.99987 366.214534 177.683771 366.777114 177.121191  C 367.339695 176.55861 367.655794 175.79548 367.655794 174.99987  C 367.655794 174.204261 367.339695 173.441131 366.777114 172.87855  C 366.214534 172.315969 365.451403 171.99987 364.655794 171.99987  C 363.860185 171.99987 363.097054 172.315969 362.534474 172.87855  C 361.971893 173.441131 361.655794 174.204261 361.655794 174.99987  C 361.655794 175.79548 361.971893 176.55861 362.534474 177.121191  C 363.097054 177.683771 363.860185 177.99987 364.655794 177.99987  z " clip-path="url(#p66798afa33)" style="fill: #1f77b4; stroke: #ffffff; stroke-width: 0.48"/>
    <path d="M 154.269268 236.425954  L 154.269268 240.668595  L 158.511908 240.668595  L 158.511908 236.425954  z " clip-path="url(#p66798afa33)" style="fill: #1f77b4; stroke: #ffffff; stroke-width: 0.48"/>
    <path d="M 208.72764 206.681942  L 208.72764 210.924583  L 212.970281 210.924583  L 212.970281 206.681942  z " clip-path="url(#p66798afa33)" style="fill: #1f77b4; stroke: #ffffff; stroke-width: 0.48"/>
    <path d="M 82.163379 216.172482  L 83.663379 214.672482  L 85.163379 216.172482  L 86.663379 214.672482  L 85.163379 213.172482  L 86.663379 211.672482  L 85.163379 210.172482  L 83.663379 211.672482  L 82.163379 210.172482  L 80.663379 211.672482  L 82.163379 213.172482  L 80.663379 214.672482  z " clip-path="url(#p66798afa33)" style="fill: #ff7f0e; stroke: #ffffff; stroke-width: 0.48"/>
    <path d="M 180.318939 256.499809  L 180.318939 260.74245  L 184.56158 260.74245  L 184.56158 256.499809  z " clip-path="url(#p66798afa33)" style="fill: #1f77b4; stroke: #ffffff; stroke-width: 0.48"/>
    <path d="M 226.647854 252.737334  L 226.647854 256.979975  L 230.890495 256.979975  L 230.890495 252.737334  z " clip-path="url(#p66798afa33)" style="fill: #1f77b4; stroke: #ffffff; stroke-width: 0.48"/>
    <path d="M 283.695096 261.018856  L 283.695096 265.261497  L 287.937737 265.261497  L 287.937737 261.018856  z " clip-path="url(#p66798afa33)" style="fill: #1f77b4; stroke: #ffffff; stroke-width: 0.48"/>
    <path d="M 89.733337 187.417805  L 91.233337 185.917805  L 92.733337 187.417805  L 94.233337 185.917805  L 92.733337 184.417805  L 94.233337 182.917805  L 92.733337 181.417805  L 91.233337 182.917805  L 89.733337 181.417805  L 88.233337 182.917805  L 89.733337 184.417805  L 88.233337 185.917805  z " clip-path="url(#p66798afa33)" style="fill: #ff7f0e; stroke: #ffffff; stroke-width: 0.48"/>
    <path d="M 225.248116 234.62996  L 225.248116 238.872601  L 229.490757 238.872601  L 229.490757 234.62996  z " clip-path="url(#p66798afa33)" style="fill: #1f77b4; stroke: #ffffff; stroke-width: 0.48"/>
    <path d="M 253.495678 274.212805  L 253.495678 278.455445  L 257.738319 278.455445  L 257.738319 274.212805  z " clip-path="url(#p66798afa33)" style="fill: #1f77b4; stroke: #ffffff; stroke-width: 0.48"/>
    <path d="M 265.440727 189.006896  L 265.440727 193.249537  L 269.683367 193.249537  L 269.683367 189.006896  z " clip-path="url(#p66798afa33)" style="fill: #1f77b4; stroke: #ffffff; stroke-width: 0.48"/>
    <path d="M 228.71344 265.309829  L 228.71344 269.552469  L 232.95608 269.552469  L 232.95608 265.309829  z " clip-path="url(#p66798afa33)" style="fill: #1f77b4; stroke: #ffffff; stroke-width: 0.48"/>
    <path d="M 255.068237 242.750317  L 255.068237 246.992957  L 259.310878 246.992957  L 259.310878 242.750317  z " clip-path="url(#p66798afa33)" style="fill: #1f77b4; stroke: #ffffff; stroke-width: 0.48"/>
    <path d="M 103.01046 188.17106  L 104.51046 186.67106  L 106.01046 188.17106  L 107.51046 186.67106  L 106.01046 185.17106  L 107.51046 183.67106  L 106.01046 182.17106  L 104.51046 183.67106  L 103.01046 182.17106  L 101.51046 183.67106  L 103.01046 185.17106  L 101.51046 186.67106  z " clip-path="url(#p66798afa33)" style="fill: #ff7f0e; stroke: #ffffff; stroke-width: 0.48"/>
    <path d="M 260.974913 251.116721  L 260.974913 255.359362  L 265.217553 255.359362  L 265.217553 251.116721  z " clip-path="url(#p66798afa33)" style="fill: #1f77b4; stroke: #ffffff; stroke-width: 0.48"/>
    <path d="M 85.64101 206.108328  L 87.14101 204.608328  L 88.64101 206.108328  L 90.14101 204.608328  L 88.64101 203.108328  L 90.14101 201.608328  L 88.64101 200.108328  L 87.14101 201.608328  L 85.64101 200.108328  L 84.14101 201.608328  L 85.64101 203.108328  L 84.14101 204.608328  z " clip-path="url(#p66798afa33)" style="fill: #ff7f0e; stroke: #ffffff; stroke-width: 0.48"/>
    <path d="M 262.077437 206.350419  C 262.873047 206.350419 263.636177 206.03432 264.198758 205.47174  C 264.761338 204.909159 265.077437 204.146029 265.077437 203.350419  C 265.077437 202.55481 264.761338 201.79168 264.198758 201.229099  C 263.636177 200.666518 262.873047 200.350419 262.077437 200.350419  C 261.281828 200.350419 260.518698 200.666518 259.956117 201.229099  C 259.393536 201.79168 259.077437 202.55481 259.077437 203.350419  C 259.077437 204.146029 259.393536 204.909159 259.956117 205.47174  C 260.518698 206.03432 261.281828 206.350419 262.077437 206.350419  z " clip-path="url(#p66798afa33)" style="fill: #ff7f0e; stroke: #ffffff; stroke-width: 0.48"/>
    <path d="M 105.770362 171.672237  L 107.270362 170.172237  L 108.770362 171.672237  L 110.270362 170.172237  L 108.770362 168.672237  L 110.270362 167.172237  L 108.770362 165.672237  L 107.270362 167.172237  L 105.770362 165.672237  L 104.270362 167.172237  L 105.770362 168.672237  L 104.270362 170.172237  z " clip-path="url(#p66798afa33)" style="fill: #ff7f0e; stroke: #ffffff; stroke-width: 0.48"/>
    <path d="M 167.031639 235.665666  L 167.031639 239.908307  L 171.27428 239.908307  L 171.27428 235.665666  z " clip-path="url(#p66798afa33)" style="fill: #1f77b4; stroke: #ffffff; stroke-width: 0.48"/>
    <path d="M 77.288851 212.314819  L 78.788851 210.814819  L 80.288851 212.314819  L 81.788851 210.814819  L 80.288851 209.314819  L 81.788851 207.814819  L 80.288851 206.314819  L 78.788851 207.814819  L 77.288851 206.314819  L 75.788851 207.814819  L 77.288851 209.314819  L 75.788851 210.814819  z " clip-path="url(#p66798afa33)" style="fill: #ff7f0e; stroke: #ffffff; stroke-width: 0.48"/>
    <path d="M 186.343956 195.086078  L 186.343956 199.328718  L 190.586597 199.328718  L 190.586597 195.086078  z " clip-path="url(#p66798afa33)" style="fill: #1f77b4; stroke: #ffffff; stroke-width: 0.48"/>
    <path d="M 177.880386 231.730613  L 177.880386 235.973254  L 182.123027 235.973254  L 182.123027 231.730613  z " clip-path="url(#p66798afa33)" style="fill: #1f77b4; stroke: #ffffff; stroke-width: 0.48"/>
    <path d="M 228.146367 173.066723  L 229.646367 171.566723  L 231.146367 173.066723  L 232.646367 171.566723  L 231.146367 170.066723  L 232.646367 168.566723  L 231.146367 167.066723  L 229.646367 168.566723  L 228.146367 167.066723  L 226.646367 168.566723  L 228.146367 170.066723  L 226.646367 171.566723  z " clip-path="url(#p66798afa33)" style="fill: #1f77b4; stroke: #ffffff; stroke-width: 0.48"/>
    <path d="M 398.341547 169.659665  C 399.137156 169.659665 399.900286 169.343566 400.462867 168.780985  C 401.025448 168.218404 401.341547 167.455274 401.341547 166.659665  C 401.341547 165.864056 401.025448 165.100925 400.462867 164.538345  C 399.900286 163.975764 399.137156 163.659665 398.341547 163.659665  C 397.545937 163.659665 396.782807 163.975764 396.220226 164.538345  C 395.657645 165.100925 395.341547 165.864056 395.341547 166.659665  C 395.341547 167.455274 395.657645 168.218404 396.220226 168.780985  C 396.782807 169.343566 397.545937 169.659665 398.341547 169.659665  z " clip-path="url(#p66798afa33)" style="fill: #1f77b4; stroke: #ffffff; stroke-width: 0.48"/>
    <path d="M 223.227657 186.293503  L 224.727657 184.793503  L 226.227657 186.293503  L 227.727657 184.793503  L 226.227657 183.293503  L 227.727657 181.793503  L 226.227657 180.293503  L 224.727657 181.793503  L 223.227657 180.293503  L 221.727657 181.793503  L 223.227657 183.293503  L 221.727657 184.793503  z " clip-path="url(#p66798afa33)" style="fill: #1f77b4; stroke: #ffffff; stroke-width: 0.48"/>
    <path d="M 240.886905 261.602867  L 240.886905 265.845508  L 245.129546 265.845508  L 245.129546 261.602867  z " clip-path="url(#p66798afa33)" style="fill: #1f77b4; stroke: #ffffff; stroke-width: 0.48"/>
    <path d="M 341.198653 201.1047  C 341.994262 201.1047 342.757392 200.788601 343.319973 200.22602  C 343.882554 199.663439 344.198653 198.900309 344.198653 198.1047  C 344.198653 197.30909 343.882554 196.54596 343.319973 195.983379  C 342.757392 195.420799 341.994262 195.1047 341.198653 195.1047  C 340.403043 195.1047 339.639913 195.420799 339.077332 195.983379  C 338.514752 196.54596 338.198653 197.30909 338.198653 198.1047  C 338.198653 198.900309 338.514752 199.663439 339.077332 200.22602  C 339.639913 200.788601 340.403043 201.1047 341.198653 201.1047  z " clip-path="url(#p66798afa33)" style="fill: #1f77b4; stroke: #ffffff; stroke-width: 0.48"/>
    <path d="M 236.141384 180.283219  L 237.641384 178.783219  L 239.141384 180.283219  L 240.641384 178.783219  L 239.141384 177.283219  L 240.641384 175.783219  L 239.141384 174.283219  L 237.641384 175.783219  L 236.141384 174.283219  L 234.641384 175.783219  L 236.141384 177.283219  L 234.641384 178.783219  z " clip-path="url(#p66798afa33)" style="fill: #1f77b4; stroke: #ffffff; stroke-width: 0.48"/>
    <path d="M 224.520426 239.526026  L 224.520426 243.768667  L 228.763067 243.768667  L 228.763067 239.526026  z " clip-path="url(#p66798afa33)" style="fill: #1f77b4; stroke: #ffffff; stroke-width: 0.48"/>
    <path d="M 83.471382 203.696793  L 84.971382 202.196793  L 86.471382 203.696793  L 87.971382 202.196793  L 86.471382 200.696793  L 87.971382 199.196793  L 86.471382 197.696793  L 84.971382 199.196793  L 83.471382 197.696793  L 81.971382 199.196793  L 83.471382 200.696793  L 81.971382 202.196793  z " clip-path="url(#p66798afa33)" style="fill: #ff7f0e; stroke: #ffffff; stroke-width: 0.48"/>
    <path d="M 272.266178 232.312024  L 272.266178 236.554664  L 276.508819 236.554664  L 276.508819 232.312024  z " clip-path="url(#p66798afa33)" style="fill: #1f77b4; stroke: #ffffff; stroke-width: 0.48"/>
    <path d="M 236.908286 269.834024  L 236.908286 274.076665  L 241.150926 274.076665  L 241.150926 269.834024  z " clip-path="url(#p66798afa33)" style="fill: #1f77b4; stroke: #ffffff; stroke-width: 0.48"/>
    <path d="M 129.058811 198.527223  L 129.058811 202.769864  L 133.301452 202.769864  L 133.301452 198.527223  z " clip-path="url(#p66798afa33)" style="fill: #ff7f0e; stroke: #ffffff; stroke-width: 0.48"/>
    <path d="M 105.649437 223.845655  L 105.649437 228.088296  L 109.892078 228.088296  L 109.892078 223.845655  z " clip-path="url(#p66798afa33)" style="fill: #1f77b4; stroke: #ffffff; stroke-width: 0.48"/>
    <path d="M 235.709607 193.282141  L 237.209607 191.782141  L 238.709607 193.282141  L 240.209607 191.782141  L 238.709607 190.282141  L 240.209607 188.782141  L 238.709607 187.282141  L 237.209607 188.782141  L 235.709607 187.282141  L 234.209607 188.782141  L 235.709607 190.282141  L 234.209607 191.782141  z " clip-path="url(#p66798afa33)" style="fill: #1f77b4; stroke: #ffffff; stroke-width: 0.48"/>
    <path d="M 246.583013 230.367522  L 246.583013 234.610163  L 250.825654 234.610163  L 250.825654 230.367522  z " clip-path="url(#p66798afa33)" style="fill: #1f77b4; stroke: #ffffff; stroke-width: 0.48"/>
    <path d="M 105.977255 173.133376  L 107.477255 171.633376  L 108.977255 173.133376  L 110.477255 171.633376  L 108.977255 170.133376  L 110.477255 168.633376  L 108.977255 167.133376  L 107.477255 168.633376  L 105.977255 167.133376  L 104.477255 168.633376  L 105.977255 170.133376  L 104.477255 171.633376  z " clip-path="url(#p66798afa33)" style="fill: #ff7f0e; stroke: #ffffff; stroke-width: 0.48"/>
    <path d="M 160.915654 214.757426  L 160.915654 219.000067  L 165.158295 219.000067  L 165.158295 214.757426  z " clip-path="url(#p66798afa33)" style="fill: #1f77b4; stroke: #ffffff; stroke-width: 0.48"/>
    <path d="M 156.98079 193.680833  L 156.98079 197.923474  L 161.223431 197.923474  L 161.223431 193.680833  z " clip-path="url(#p66798afa33)" style="fill: #ff7f0e; stroke: #ffffff; stroke-width: 0.48"/>
    <path d="M 231.208631 260.328647  L 231.208631 264.571288  L 235.451272 264.571288  L 235.451272 260.328647  z " clip-path="url(#p66798afa33)" style="fill: #1f77b4; stroke: #ffffff; stroke-width: 0.48"/>
    <path d="M 266.568057 250.008262  L 266.568057 254.250902  L 270.810697 254.250902  L 270.810697 250.008262  z " clip-path="url(#p66798afa33)" style="fill: #1f77b4; stroke: #ffffff; stroke-width: 0.48"/>
    <path d="M 304.885001 149.810084  L 304.885001 154.052725  L 309.127642 154.052725  L 309.127642 149.810084  z " clip-path="url(#p66798afa33)" style="fill: #1f77b4; stroke: #ffffff; stroke-width: 0.48"/>
    <path d="M 215.535063 226.714267  L 215.535063 230.956908  L 219.777704 230.956908  L 219.777704 226.714267  z " clip-path="url(#p66798afa33)" style="fill: #1f77b4; stroke: #ffffff; stroke-width: 0.48"/>
    <path d="M 141.621781 205.320844  L 141.621781 209.563485  L 145.864421 209.563485  L 145.864421 205.320844  z " clip-path="url(#p66798afa33)" style="fill: #1f77b4; stroke: #ffffff; stroke-width: 0.48"/>
    <path d="M 233.173533 255.82401  L 233.173533 260.066651  L 237.416174 260.066651  L 237.416174 255.82401  z " clip-path="url(#p66798afa33)" style="fill: #1f77b4; stroke: #ffffff; stroke-width: 0.48"/>
    <path d="M 138.113212 217.269368  L 139.613212 215.769368  L 141.113212 217.269368  L 142.613212 215.769368  L 141.113212 214.269368  L 142.613212 212.769368  L 141.113212 211.269368  L 139.613212 212.769368  L 138.113212 211.269368  L 136.613212 212.769368  L 138.113212 214.269368  L 136.613212 215.769368  z " clip-path="url(#p66798afa33)" style="fill: #1f77b4; stroke: #ffffff; stroke-width: 0.48"/>
    <path d="M 189.650352 216.085472  L 189.650352 220.328113  L 193.892993 220.328113  L 193.892993 216.085472  z " clip-path="url(#p66798afa33)" style="fill: #1f77b4; stroke: #ffffff; stroke-width: 0.48"/>
    <path d="M 229.167554 229.738626  L 229.167554 233.981267  L 233.410194 233.981267  L 233.410194 229.738626  z " clip-path="url(#p66798afa33)" style="fill: #1f77b4; stroke: #ffffff; stroke-width: 0.48"/>
    <path d="M 351.746229 189.744783  C 352.541838 189.744783 353.304968 189.428684 353.867549 188.866104  C 354.43013 188.303523 354.746229 187.540393 354.746229 186.744783  C 354.746229 185.949174 354.43013 185.186044 353.867549 184.623463  C 353.304968 184.060882 352.541838 183.744783 351.746229 183.744783  C 350.950619 183.744783 350.187489 184.060882 349.624908 184.623463  C 349.062328 185.186044 348.746229 185.949174 348.746229 186.744783  C 348.746229 187.540393 349.062328 188.303523 349.624908 188.866104  C 350.187489 189.428684 350.950619 189.744783 351.746229 189.744783  z " clip-path="url(#p66798afa33)" style="fill: #1f77b4; stroke: #ffffff; stroke-width: 0.48"/>
    <path d="M 246.309441 187.45682  L 246.309441 191.69946  L 250.552081 191.69946  L 250.552081 187.45682  z " clip-path="url(#p66798afa33)" style="fill: #1f77b4; stroke: #ffffff; stroke-width: 0.48"/>
    <path d="M 82.072422 208.963227  L 83.572422 207.463227  L 85.072422 208.963227  L 86.572422 207.463227  L 85.072422 205.963227  L 86.572422 204.463227  L 85.072422 202.963227  L 83.572422 204.463227  L 82.072422 202.963227  L 80.572422 204.463227  L 82.072422 205.963227  L 80.572422 207.463227  z " clip-path="url(#p66798afa33)" style="fill: #ff7f0e; stroke: #ffffff; stroke-width: 0.48"/>
    <path d="M 332.945564 177.855564  C 333.741173 177.855564 334.504303 177.539465 335.066884 176.976885  C 335.629465 176.414304 335.945564 175.651174 335.945564 174.855564  C 335.945564 174.059955 335.629465 173.296825 335.066884 172.734244  C 334.504303 172.171663 333.741173 171.855564 332.945564 171.855564  C 332.149954 171.855564 331.386824 172.171663 330.824243 172.734244  C 330.261663 173.296825 329.945564 174.059955 329.945564 174.855564  C 329.945564 175.651174 330.261663 176.414304 330.824243 176.976885  C 331.386824 177.539465 332.149954 177.855564 332.945564 177.855564  z " clip-path="url(#p66798afa33)" style="fill: #1f77b4; stroke: #ffffff; stroke-width: 0.48"/>
    <path d="M 86.772159 210.467862  L 88.272159 208.967862  L 89.772159 210.467862  L 91.272159 208.967862  L 89.772159 207.467862  L 91.272159 205.967862  L 89.772159 204.467862  L 88.272159 205.967862  L 86.772159 204.467862  L 85.272159 205.967862  L 86.772159 207.467862  L 85.272159 208.967862  z " clip-path="url(#p66798afa33)" style="fill: #ff7f0e; stroke: #ffffff; stroke-width: 0.48"/>
    <path d="M 305.853757 170.810796  L 305.853757 175.053437  L 310.096397 175.053437  L 310.096397 170.810796  z " clip-path="url(#p66798afa33)" style="fill: #1f77b4; stroke: #ffffff; stroke-width: 0.48"/>
    <path d="M 283.568174 177.248661  L 283.568174 181.491301  L 287.810815 181.491301  L 287.810815 177.248661  z " clip-path="url(#p66798afa33)" style="fill: #1f77b4; stroke: #ffffff; stroke-width: 0.48"/>
    <path d="M 226.249266 265.645648  L 226.249266 269.888289  L 230.491907 269.888289  L 230.491907 265.645648  z " clip-path="url(#p66798afa33)" style="fill: #1f77b4; stroke: #ffffff; stroke-width: 0.48"/>
    <path d="M 173.675264 257.758002  L 173.675264 262.000643  L 177.917905 262.000643  L 177.917905 257.758002  z " clip-path="url(#p66798afa33)" style="fill: #1f77b4; stroke: #ffffff; stroke-width: 0.48"/>
    <path d="M 285.323177 240.182273  L 285.323177 244.424913  L 289.565817 244.424913  L 289.565817 240.182273  z " clip-path="url(#p66798afa33)" style="fill: #1f77b4; stroke: #ffffff; stroke-width: 0.48"/>
    <path d="M 358.74299 186.526773  C 359.538599 186.526773 360.301729 186.210674 360.86431 185.648093  C 361.426891 185.085512 361.74299 184.322382 361.74299 183.526773  C 361.74299 182.731163 361.426891 181.968033 360.86431 181.405452  C 360.301729 180.842872 359.538599 180.526773 358.74299 180.526773  C 357.947381 180.526773 357.18425 180.842872 356.621669 181.405452  C 356.059089 181.968033 355.74299 182.731163 355.74299 183.526773  C 355.74299 184.322382 356.059089 185.085512 356.621669 185.648093  C 357.18425 186.210674 357.947381 186.526773 358.74299 186.526773  z " clip-path="url(#p66798afa33)" style="fill: #1f77b4; stroke: #ffffff; stroke-width: 0.48"/>
    <path d="M 283.231932 245.479822  L 283.231932 249.722463  L 287.474573 249.722463  L 287.474573 245.479822  z " clip-path="url(#p66798afa33)" style="fill: #1f77b4; stroke: #ffffff; stroke-width: 0.48"/>
    <path d="M 144.191677 204.118893  L 145.691677 202.618893  L 147.191677 204.118893  L 148.691677 202.618893  L 147.191677 201.118893  L 148.691677 199.618893  L 147.191677 198.118893  L 145.691677 199.618893  L 144.191677 198.118893  L 142.691677 199.618893  L 144.191677 201.118893  L 142.691677 202.618893  z " clip-path="url(#p66798afa33)" style="fill: #1f77b4; stroke: #ffffff; stroke-width: 0.48"/>
    <path d="M 216.405738 256.625223  L 216.405738 260.867864  L 220.648379 260.867864  L 220.648379 256.625223  z " clip-path="url(#p66798afa33)" style="fill: #1f77b4; stroke: #ffffff; stroke-width: 0.48"/>
    <path d="M 195.476085 247.968045  L 195.476085 252.210686  L 199.718725 252.210686  L 199.718725 247.968045  z " clip-path="url(#p66798afa33)" style="fill: #1f77b4; stroke: #ffffff; stroke-width: 0.48"/>
    <path d="M 271.247157 249.110638  L 271.247157 253.353278  L 275.489797 253.353278  L 275.489797 249.110638  z " clip-path="url(#p66798afa33)" style="fill: #1f77b4; stroke: #ffffff; stroke-width: 0.48"/>
    <path d="M 234.523431 253.623859  L 234.523431 257.8665  L 238.766072 257.8665  L 238.766072 253.623859  z " clip-path="url(#p66798afa33)" style="fill: #1f77b4; stroke: #ffffff; stroke-width: 0.48"/>
    <path d="M 169.623873 229.949601  L 169.623873 234.192241  L 173.866514 234.192241  L 173.866514 229.949601  z " clip-path="url(#p66798afa33)" style="fill: #1f77b4; stroke: #ffffff; stroke-width: 0.48"/>
    <path d="M 287.728968 266.774853  L 287.728968 271.017493  L 291.971609 271.017493  L 291.971609 266.774853  z " clip-path="url(#p66798afa33)" style="fill: #1f77b4; stroke: #ffffff; stroke-width: 0.48"/>
    <path d="M 227.770563 258.21912  L 227.770563 262.461761  L 232.013203 262.461761  L 232.013203 258.21912  z " clip-path="url(#p66798afa33)" style="fill: #1f77b4; stroke: #ffffff; stroke-width: 0.48"/>
    <path d="M 185.559025 211.32522  L 185.559025 215.56786  L 189.801666 215.56786  L 189.801666 211.32522  z " clip-path="url(#p66798afa33)" style="fill: #1f77b4; stroke: #ffffff; stroke-width: 0.48"/>
    <path d="M 296.18927 185.661608  L 296.18927 189.904249  L 300.43191 189.904249  L 300.43191 185.661608  z " clip-path="url(#p66798afa33)" style="fill: #1f77b4; stroke: #ffffff; stroke-width: 0.48"/>
    <path d="M 174.543053 221.111645  L 174.543053 225.354285  L 178.785694 225.354285  L 178.785694 221.111645  z " clip-path="url(#p66798afa33)" style="fill: #1f77b4; stroke: #ffffff; stroke-width: 0.48"/>
    <path d="M 135.564091 243.614916  L 135.564091 247.857557  L 139.806732 247.857557  L 139.806732 243.614916  z " clip-path="url(#p66798afa33)" style="fill: #1f77b4; stroke: #ffffff; stroke-width: 0.48"/>
    <path d="M 210.217112 32.292805  L 210.217112 36.535445  L 214.459752 36.535445  L 214.459752 32.292805  z " clip-path="url(#p66798afa33)" style="fill: #1f77b4; stroke: #ffffff; stroke-width: 0.48"/>
    <path d="M 163.043494 152.658242  L 164.543494 151.158242  L 166.043494 152.658242  L 167.543494 151.158242  L 166.043494 149.658242  L 167.543494 148.158242  L 166.043494 146.658242  L 164.543494 148.158242  L 163.043494 146.658242  L 161.543494 148.158242  L 163.043494 149.658242  L 161.543494 151.158242  z " clip-path="url(#p66798afa33)" style="fill: #1f77b4; stroke: #ffffff; stroke-width: 0.48"/>
    <path d="M 357.821564 160.176628  C 358.617173 160.176628 359.380303 159.860529 359.942884 159.297949  C 360.505465 158.735368 360.821564 157.972237 360.821564 157.176628  C 360.821564 156.381019 360.505465 155.617889 359.942884 155.055308  C 359.380303 154.492727 358.617173 154.176628 357.821564 154.176628  C 357.025954 154.176628 356.262824 154.492727 355.700243 155.055308  C 355.137663 155.617889 354.821564 156.381019 354.821564 157.176628  C 354.821564 157.972237 355.137663 158.735368 355.700243 159.297949  C 356.262824 159.860529 357.025954 160.176628 357.821564 160.176628  z " clip-path="url(#p66798afa33)" style="fill: #1f77b4; stroke: #ffffff; stroke-width: 0.48"/>
    <path d="M 197.90593 159.033777  L 199.40593 157.533777  L 200.90593 159.033777  L 202.40593 157.533777  L 200.90593 156.033777  L 202.40593 154.533777  L 200.90593 153.033777  L 199.40593 154.533777  L 197.90593 153.033777  L 196.40593 154.533777  L 197.90593 156.033777  L 196.40593 157.533777  z " clip-path="url(#p66798afa33)" style="fill: #1f77b4; stroke: #ffffff; stroke-width: 0.48"/>
    <path d="M 196.654597 229.862617  L 196.654597 234.105258  L 200.897238 234.105258  L 200.897238 229.862617  z " clip-path="url(#p66798afa33)" style="fill: #1f77b4; stroke: #ffffff; stroke-width: 0.48"/>
    <path d="M 100.511991 169.812088  L 102.011991 168.312088  L 103.511991 169.812088  L 105.011991 168.312088  L 103.511991 166.812088  L 105.011991 165.312088  L 103.511991 163.812088  L 102.011991 165.312088  L 100.511991 163.812088  L 99.011991 165.312088  L 100.511991 166.812088  L 99.011991 168.312088  z " clip-path="url(#p66798afa33)" style="fill: #ff7f0e; stroke: #ffffff; stroke-width: 0.48"/>
    <path d="M 230.573334 229.504825  L 230.573334 233.747466  L 234.815975 233.747466  L 234.815975 229.504825  z " clip-path="url(#p66798afa33)" style="fill: #1f77b4; stroke: #ffffff; stroke-width: 0.48"/>
    <path d="M 155.700245 244.235297  L 155.700245 248.477938  L 159.942886 248.477938  L 159.942886 244.235297  z " clip-path="url(#p66798afa33)" style="fill: #1f77b4; stroke: #ffffff; stroke-width: 0.48"/>
    <path d="M 373.018844 190.408307  C 373.814454 190.408307 374.577584 190.092208 375.140165 189.529627  C 375.702745 188.967046 376.018844 188.203916 376.018844 187.408307  C 376.018844 186.612697 375.702745 185.849567 375.140165 185.286986  C 374.577584 184.724405 373.814454 184.408307 373.018844 184.408307  C 372.223235 184.408307 371.460105 184.724405 370.897524 185.286986  C 370.334943 185.849567 370.018844 186.612697 370.018844 187.408307  C 370.018844 188.203916 370.334943 188.967046 370.897524 189.529627  C 371.460105 190.092208 372.223235 190.408307 373.018844 190.408307  z " clip-path="url(#p66798afa33)" style="fill: #1f77b4; stroke: #ffffff; stroke-width: 0.48"/>
    <path d="M 323.660357 128.460189  L 325.160357 126.960189  L 326.660357 128.460189  L 328.160357 126.960189  L 326.660357 125.460189  L 328.160357 123.960189  L 326.660357 122.460189  L 325.160357 123.960189  L 323.660357 122.460189  L 322.160357 123.960189  L 323.660357 125.460189  L 322.160357 126.960189  z " clip-path="url(#p66798afa33)" style="fill: #1f77b4; stroke: #ffffff; stroke-width: 0.48"/>
    <path d="M 191.09533 229.043397  L 191.09533 233.286038  L 195.337971 233.286038  L 195.337971 229.043397  z " clip-path="url(#p66798afa33)" style="fill: #1f77b4; stroke: #ffffff; stroke-width: 0.48"/>
    <path d="M 152.991984 211.621178  L 152.991984 215.863819  L 157.234625 215.863819  L 157.234625 211.621178  z " clip-path="url(#p66798afa33)" style="fill: #1f77b4; stroke: #ffffff; stroke-width: 0.48"/>
    <path d="M 239.474366 268.027952  L 239.474366 272.270592  L 243.717006 272.270592  L 243.717006 268.027952  z " clip-path="url(#p66798afa33)" style="fill: #1f77b4; stroke: #ffffff; stroke-width: 0.48"/>
    <path d="M 118.706376 144.541042  L 118.706376 148.783682  L 122.949016 148.783682  L 122.949016 144.541042  z " clip-path="url(#p66798afa33)" style="fill: #2ca02c; stroke: #ffffff; stroke-width: 0.48"/>
    <path d="M 336.467004 204.85925  C 337.262614 204.85925 338.025744 204.543151 338.588325 203.98057  C 339.150905 203.41799 339.467004 202.654859 339.467004 201.85925  C 339.467004 201.063641 339.150905 200.30051 338.588325 199.73793  C 338.025744 199.175349 337.262614 198.85925 336.467004 198.85925  C 335.671395 198.85925 334.908265 199.175349 334.345684 199.73793  C 333.783103 200.30051 333.467004 201.063641 333.467004 201.85925  C 333.467004 202.654859 333.783103 203.41799 334.345684 203.98057  C 334.908265 204.543151 335.671395 204.85925 336.467004 204.85925  z " clip-path="url(#p66798afa33)" style="fill: #1f77b4; stroke: #ffffff; stroke-width: 0.48"/>
    <path d="M 150.577457 236.412036  L 150.577457 240.654676  L 154.820098 240.654676  L 154.820098 236.412036  z " clip-path="url(#p66798afa33)" style="fill: #1f77b4; stroke: #ffffff; stroke-width: 0.48"/>
    <path d="M 181.428743 162.181593  L 182.928743 160.681593  L 184.428743 162.181593  L 185.928743 160.681593  L 184.428743 159.181593  L 185.928743 157.681593  L 184.428743 156.181593  L 182.928743 157.681593  L 181.428743 156.181593  L 179.928743 157.681593  L 181.428743 159.181593  L 179.928743 160.681593  z " clip-path="url(#p66798afa33)" style="fill: #1f77b4; stroke: #ffffff; stroke-width: 0.48"/>
    <path d="M 86.740852 215.141464  L 88.240852 213.641464  L 89.740852 215.141464  L 91.240852 213.641464  L 89.740852 212.141464  L 91.240852 210.641464  L 89.740852 209.141464  L 88.240852 210.641464  L 86.740852 209.141464  L 85.240852 210.641464  L 86.740852 212.141464  L 85.240852 213.641464  z " clip-path="url(#p66798afa33)" style="fill: #1f77b4; stroke: #ffffff; stroke-width: 0.48"/>
    <path d="M 280.412594 264.010538  L 280.412594 268.253179  L 284.655235 268.253179  L 284.655235 264.010538  z " clip-path="url(#p66798afa33)" style="fill: #1f77b4; stroke: #ffffff; stroke-width: 0.48"/>
    <path d="M 160.8867 171.384247  L 160.8867 175.626888  L 165.129341 175.626888  L 165.129341 171.384247  z " clip-path="url(#p66798afa33)" style="fill: #ff7f0e; stroke: #ffffff; stroke-width: 0.48"/>
    <path d="M 215.712358 218.652805  L 215.712358 222.895446  L 219.954999 222.895446  L 219.954999 218.652805  z " clip-path="url(#p66798afa33)" style="fill: #1f77b4; stroke: #ffffff; stroke-width: 0.48"/>
    <path d="M 188.424004 213.575861  L 188.424004 217.818502  L 192.666645 217.818502  L 192.666645 213.575861  z " clip-path="url(#p66798afa33)" style="fill: #1f77b4; stroke: #ffffff; stroke-width: 0.48"/>
    <path d="M 201.466287 256.801019  L 201.466287 261.043659  L 205.708927 261.043659  L 205.708927 256.801019  z " clip-path="url(#p66798afa33)" style="fill: #1f77b4; stroke: #ffffff; stroke-width: 0.48"/>
    <path d="M 259.529564 215.195218  L 259.529564 219.437858  L 263.772204 219.437858  L 263.772204 215.195218  z " clip-path="url(#p66798afa33)" style="fill: #1f77b4; stroke: #ffffff; stroke-width: 0.48"/>
    <path d="M 156.590313 217.396802  L 156.590313 221.639443  L 160.832954 221.639443  L 160.832954 217.396802  z " clip-path="url(#p66798afa33)" style="fill: #1f77b4; stroke: #ffffff; stroke-width: 0.48"/>
    <path d="M 207.424909 192.396186  L 208.924909 190.896186  L 210.424909 192.396186  L 211.924909 190.896186  L 210.424909 189.396186  L 211.924909 187.896186  L 210.424909 186.396186  L 208.924909 187.896186  L 207.424909 186.396186  L 205.924909 187.896186  L 207.424909 189.396186  L 205.924909 190.896186  z " clip-path="url(#p66798afa33)" style="fill: #1f77b4; stroke: #ffffff; stroke-width: 0.48"/>
    <path d="M 217.708915 263.023107  L 217.708915 267.265748  L 221.951555 267.265748  L 221.951555 263.023107  z " clip-path="url(#p66798afa33)" style="fill: #1f77b4; stroke: #ffffff; stroke-width: 0.48"/>
    <path d="M 311.821478 193.903892  C 312.617087 193.903892 313.380218 193.587793 313.942798 193.025212  C 314.505379 192.462631 314.821478 191.699501 314.821478 190.903892  C 314.821478 190.108282 314.505379 189.345152 313.942798 188.782571  C 313.380218 188.219991 312.617087 187.903892 311.821478 187.903892  C 311.025869 187.903892 310.262738 188.219991 309.700158 188.782571  C 309.137577 189.345152 308.821478 190.108282 308.821478 190.903892  C 308.821478 191.699501 309.137577 192.462631 309.700158 193.025212  C 310.262738 193.587793 311.025869 193.903892 311.821478 193.903892  z " clip-path="url(#p66798afa33)" style="fill: #1f77b4; stroke: #ffffff; stroke-width: 0.48"/>
    <path d="M 205.842278 155.163514  L 205.842278 159.406154  L 210.084918 159.406154  L 210.084918 155.163514  z " clip-path="url(#p66798afa33)" style="fill: #1f77b4; stroke: #ffffff; stroke-width: 0.48"/>
    <path d="M 174.727129 201.349797  L 174.727129 205.592437  L 178.96977 205.592437  L 178.96977 201.349797  z " clip-path="url(#p66798afa33)" style="fill: #1f77b4; stroke: #ffffff; stroke-width: 0.48"/>
    <path d="M 183.65616 181.998768  L 185.15616 180.498768  L 186.65616 181.998768  L 188.15616 180.498768  L 186.65616 178.998768  L 188.15616 177.498768  L 186.65616 175.998768  L 185.15616 177.498768  L 183.65616 175.998768  L 182.15616 177.498768  L 183.65616 178.998768  L 182.15616 180.498768  z " clip-path="url(#p66798afa33)" style="fill: #1f77b4; stroke: #ffffff; stroke-width: 0.48"/>
    <path d="M 111.083865 148.174888  L 112.583865 146.674888  L 114.083865 148.174888  L 115.583865 146.674888  L 114.083865 145.174888  L 115.583865 143.674888  L 114.083865 142.174888  L 112.583865 143.674888  L 111.083865 142.174888  L 109.583865 143.674888  L 111.083865 145.174888  L 109.583865 146.674888  z " clip-path="url(#p66798afa33)" style="fill: #ff7f0e; stroke: #ffffff; stroke-width: 0.48"/>
    <path d="M 227.033046 150.000754  L 227.033046 154.243395  L 231.275686 154.243395  L 231.275686 150.000754  z " clip-path="url(#p66798afa33)" style="fill: #1f77b4; stroke: #ffffff; stroke-width: 0.48"/>
    <path d="M 237.207424 263.293389  L 237.207424 267.53603  L 241.450065 267.53603  L 241.450065 263.293389  z " clip-path="url(#p66798afa33)" style="fill: #1f77b4; stroke: #ffffff; stroke-width: 0.48"/>
    <path d="M 345.406435 201.197709  C 346.202044 201.197709 346.965175 200.88161 347.527755 200.319029  C 348.090336 199.756449 348.406435 198.993318 348.406435 198.197709  C 348.406435 197.4021 348.090336 196.638969 347.527755 196.076389  C 346.965175 195.513808 346.202044 195.197709 345.406435 195.197709  C 344.610826 195.197709 343.847695 195.513808 343.285115 196.076389  C 342.722534 196.638969 342.406435 197.4021 342.406435 198.197709  C 342.406435 198.993318 342.722534 199.756449 343.285115 200.319029  C 343.847695 200.88161 344.610826 201.197709 345.406435 201.197709  z " clip-path="url(#p66798afa33)" style="fill: #1f77b4; stroke: #ffffff; stroke-width: 0.48"/>
    <path d="M 222.701708 157.32583  L 224.201708 155.82583  L 225.701708 157.32583  L 227.201708 155.82583  L 225.701708 154.32583  L 227.201708 152.82583  L 225.701708 151.32583  L 224.201708 152.82583  L 222.701708 151.32583  L 221.201708 152.82583  L 222.701708 154.32583  L 221.201708 155.82583  z " clip-path="url(#p66798afa33)" style="fill: #1f77b4; stroke: #ffffff; stroke-width: 0.48"/>
    <path d="M 107.679152 158.692259  L 109.179152 157.192259  L 110.679152 158.692259  L 112.179152 157.192259  L 110.679152 155.692259  L 112.179152 154.192259  L 110.679152 152.692259  L 109.179152 154.192259  L 107.679152 152.692259  L 106.179152 154.192259  L 107.679152 155.692259  L 106.179152 157.192259  z " clip-path="url(#p66798afa33)" style="fill: #ff7f0e; stroke: #ffffff; stroke-width: 0.48"/>
    <path d="M 265.637055 159.627778  L 265.637055 163.870418  L 269.879695 163.870418  L 269.879695 159.627778  z " clip-path="url(#p66798afa33)" style="fill: #1f77b4; stroke: #ffffff; stroke-width: 0.48"/>
    <path d="M 290.533458 272.822497  L 290.533458 277.065137  L 294.776099 277.065137  L 294.776099 272.822497  z " clip-path="url(#p66798afa33)" style="fill: #1f77b4; stroke: #ffffff; stroke-width: 0.48"/>
    <path d="M 131.098373 213.122253  L 131.098373 217.364894  L 135.341014 217.364894  L 135.341014 213.122253  z " clip-path="url(#p66798afa33)" style="fill: #1f77b4; stroke: #ffffff; stroke-width: 0.48"/>
    <path d="M 257.75005 220.663096  L 257.75005 224.905737  L 261.992691 224.905737  L 261.992691 220.663096  z " clip-path="url(#p66798afa33)" style="fill: #1f77b4; stroke: #ffffff; stroke-width: 0.48"/>
    <path d="M 365.936661 171.942105  C 366.73227 171.942105 367.4954 171.626006 368.057981 171.063426  C 368.620562 170.500845 368.936661 169.737715 368.936661 168.942105  C 368.936661 168.146496 368.620562 167.383366 368.057981 166.820785  C 367.4954 166.258204 366.73227 165.942105 365.936661 165.942105  C 365.141051 165.942105 364.377921 166.258204 363.81534 166.820785  C 363.25276 167.383366 362.936661 168.146496 362.936661 168.942105  C 362.936661 169.737715 363.25276 170.500845 363.81534 171.063426  C 364.377921 171.626006 365.141051 171.942105 365.936661 171.942105  z " clip-path="url(#p66798afa33)" style="fill: #1f77b4; stroke: #ffffff; stroke-width: 0.48"/>
    <path d="M 223.342383 197.994942  L 223.342383 202.237583  L 227.585024 202.237583  L 227.585024 197.994942  z " clip-path="url(#p66798afa33)" style="fill: #1f77b4; stroke: #ffffff; stroke-width: 0.48"/>
    <path d="M 242.667366 174.928114  L 244.167366 173.428114  L 245.667366 174.928114  L 247.167366 173.428114  L 245.667366 171.928114  L 247.167366 170.428114  L 245.667366 168.928114  L 244.167366 170.428114  L 242.667366 168.928114  L 241.167366 170.428114  L 242.667366 171.928114  L 241.167366 173.428114  z " clip-path="url(#p66798afa33)" style="fill: #1f77b4; stroke: #ffffff; stroke-width: 0.48"/>
    <path d="M 84.710266 202.293466  L 86.210266 200.793466  L 87.710266 202.293466  L 89.210266 200.793466  L 87.710266 199.293466  L 89.210266 197.793466  L 87.710266 196.293466  L 86.210266 197.793466  L 84.710266 196.293466  L 83.210266 197.793466  L 84.710266 199.293466  L 83.210266 200.793466  z " clip-path="url(#p66798afa33)" style="fill: #ff7f0e; stroke: #ffffff; stroke-width: 0.48"/>
    <path d="M 186.826017 225.674411  L 186.826017 229.917052  L 191.068658 229.917052  L 191.068658 225.674411  z " clip-path="url(#p66798afa33)" style="fill: #1f77b4; stroke: #ffffff; stroke-width: 0.48"/>
    <path d="M 284.510942 248.418732  L 284.510942 252.661373  L 288.753583 252.661373  L 288.753583 248.418732  z " clip-path="url(#p66798afa33)" style="fill: #1f77b4; stroke: #ffffff; stroke-width: 0.48"/>
    <path d="M 281.488247 136.588412  L 282.988247 135.088412  L 284.488247 136.588412  L 285.988247 135.088412  L 284.488247 133.588412  L 285.988247 132.088412  L 284.488247 130.588412  L 282.988247 132.088412  L 281.488247 130.588412  L 279.988247 132.088412  L 281.488247 133.588412  L 279.988247 135.088412  z " clip-path="url(#p66798afa33)" style="fill: #1f77b4; stroke: #ffffff; stroke-width: 0.48"/>
    <path d="M 281.153907 209.116082  L 281.153907 213.358723  L 285.396548 213.358723  L 285.396548 209.116082  z " clip-path="url(#p66798afa33)" style="fill: #1f77b4; stroke: #ffffff; stroke-width: 0.48"/>
    <path d="M 104.404099 167.691412  L 105.904099 166.191412  L 107.404099 167.691412  L 108.904099 166.191412  L 107.404099 164.691412  L 108.904099 163.191412  L 107.404099 161.691412  L 105.904099 163.191412  L 104.404099 161.691412  L 102.904099 163.191412  L 104.404099 164.691412  L 102.904099 166.191412  z " clip-path="url(#p66798afa33)" style="fill: #ff7f0e; stroke: #ffffff; stroke-width: 0.48"/>
    <path d="M 295.565915 188.986531  L 295.565915 193.229172  L 299.808556 193.229172  L 299.808556 188.986531  z " clip-path="url(#p66798afa33)" style="fill: #1f77b4; stroke: #ffffff; stroke-width: 0.48"/>
    <path d="M 334.800222 203.793203  C 335.595831 203.793203 336.358962 203.477104 336.921542 202.914523  C 337.484123 202.351942 337.800222 201.588812 337.800222 200.793203  C 337.800222 199.997593 337.484123 199.234463 336.921542 198.671882  C 336.358962 198.109301 335.595831 197.793203 334.800222 197.793203  C 334.004613 197.793203 333.241482 198.109301 332.678902 198.671882  C 332.116321 199.234463 331.800222 199.997593 331.800222 200.793203  C 331.800222 201.588812 332.116321 202.351942 332.678902 202.914523  C 333.241482 203.477104 334.004613 203.793203 334.800222 203.793203  z " clip-path="url(#p66798afa33)" style="fill: #1f77b4; stroke: #ffffff; stroke-width: 0.48"/>
    <path d="M 106.399083 154.896694  L 107.899083 153.396694  L 109.399083 154.896694  L 110.899083 153.396694  L 109.399083 151.896694  L 110.899083 150.396694  L 109.399083 148.896694  L 107.899083 150.396694  L 106.399083 148.896694  L 104.899083 150.396694  L 106.399083 151.896694  L 104.899083 153.396694  z " clip-path="url(#p66798afa33)" style="fill: #ff7f0e; stroke: #ffffff; stroke-width: 0.48"/>
    <path d="M 151.20317 153.02213  L 152.70317 151.52213  L 154.20317 153.02213  L 155.70317 151.52213  L 154.20317 150.02213  L 155.70317 148.52213  L 154.20317 147.02213  L 152.70317 148.52213  L 151.20317 147.02213  L 149.70317 148.52213  L 151.20317 150.02213  L 149.70317 151.52213  z " clip-path="url(#p66798afa33)" style="fill: #ff7f0e; stroke: #ffffff; stroke-width: 0.48"/>
    <path d="M 319.805774 109.001672  L 319.805774 113.244313  L 324.048414 113.244313  L 324.048414 109.001672  z " clip-path="url(#p66798afa33)" style="fill: #1f77b4; stroke: #ffffff; stroke-width: 0.48"/>
    <path d="M 285.348164 222.251739  L 285.348164 226.49438  L 289.590804 226.49438  L 289.590804 222.251739  z " clip-path="url(#p66798afa33)" style="fill: #1f77b4; stroke: #ffffff; stroke-width: 0.48"/>
    <path d="M 76.44054 212.20091  L 77.94054 210.70091  L 79.44054 212.20091  L 80.94054 210.70091  L 79.44054 209.20091  L 80.94054 207.70091  L 79.44054 206.20091  L 77.94054 207.70091  L 76.44054 206.20091  L 74.94054 207.70091  L 76.44054 209.20091  L 74.94054 210.70091  z " clip-path="url(#p66798afa33)" style="fill: #ff7f0e; stroke: #ffffff; stroke-width: 0.48"/>
    <path d="M 215.827317 205.930358  L 215.827317 210.172998  L 220.069958 210.172998  L 220.069958 205.930358  z " clip-path="url(#p66798afa33)" style="fill: #1f77b4; stroke: #ffffff; stroke-width: 0.48"/>
    <path d="M 211.512189 242.037617  L 211.512189 246.280257  L 215.75483 246.280257  L 215.75483 242.037617  z " clip-path="url(#p66798afa33)" style="fill: #1f77b4; stroke: #ffffff; stroke-width: 0.48"/>
    <path d="M 218.080753 244.056569  L 218.080753 248.29921  L 222.323393 248.29921  L 222.323393 244.056569  z " clip-path="url(#p66798afa33)" style="fill: #1f77b4; stroke: #ffffff; stroke-width: 0.48"/>
    <path d="M 95.417695 158.394603  L 96.917695 156.894603  L 98.417695 158.394603  L 99.917695 156.894603  L 98.417695 155.394603  L 99.917695 153.894603  L 98.417695 152.394603  L 96.917695 153.894603  L 95.417695 152.394603  L 93.917695 153.894603  L 95.417695 155.394603  L 93.917695 156.894603  z " clip-path="url(#p66798afa33)" style="fill: #ff7f0e; stroke: #ffffff; stroke-width: 0.48"/>
    <path d="M 265.017099 269.060295  L 265.017099 273.302936  L 269.25974 273.302936  L 269.25974 269.060295  z " clip-path="url(#p66798afa33)" style="fill: #1f77b4; stroke: #ffffff; stroke-width: 0.48"/>
    <path d="M 218.800795 258.292932  L 218.800795 262.535572  L 223.043436 262.535572  L 223.043436 258.292932  z " clip-path="url(#p66798afa33)" style="fill: #1f77b4; stroke: #ffffff; stroke-width: 0.48"/>
    <path d="M 274.671629 129.412417  L 276.171629 127.912417  L 277.671629 129.412417  L 279.171629 127.912417  L 277.671629 126.412417  L 279.171629 124.912417  L 277.671629 123.412417  L 276.171629 124.912417  L 274.671629 123.412417  L 273.171629 124.912417  L 274.671629 126.412417  L 273.171629 127.912417  z " clip-path="url(#p66798afa33)" style="fill: #1f77b4; stroke: #ffffff; stroke-width: 0.48"/>
    <path d="M 207.466919 193.019957  L 207.466919 197.262597  L 211.70956 197.262597  L 211.70956 193.019957  z " clip-path="url(#p66798afa33)" style="fill: #1f77b4; stroke: #ffffff; stroke-width: 0.48"/>
    <path d="M 375.90774 188.043919  C 376.70335 188.043919 377.46648 187.72782 378.029061 187.16524  C 378.591641 186.602659 378.90774 185.839529 378.90774 185.043919  C 378.90774 184.24831 378.591641 183.48518 378.029061 182.922599  C 377.46648 182.360018 376.70335 182.043919 375.90774 182.043919  C 375.112131 182.043919 374.349001 182.360018 373.78642 182.922599  C 373.223839 183.48518 372.90774 184.24831 372.90774 185.043919  C 372.90774 185.839529 373.223839 186.602659 373.78642 187.16524  C 374.349001 187.72782 375.112131 188.043919 375.90774 188.043919  z " clip-path="url(#p66798afa33)" style="fill: #1f77b4; stroke: #ffffff; stroke-width: 0.48"/>
    <path d="M 83.745262 268.083631  L 83.745262 272.326272  L 87.987903 272.326272  L 87.987903 268.083631  z " clip-path="url(#p66798afa33)" style="fill: #1f77b4; stroke: #ffffff; stroke-width: 0.48"/>
    <path d="M 267.51046 250.539068  L 267.51046 254.781708  L 271.753101 254.781708  L 271.753101 250.539068  z " clip-path="url(#p66798afa33)" style="fill: #1f77b4; stroke: #ffffff; stroke-width: 0.48"/>
    <path d="M 263.840937 270.285945  L 263.840937 274.528586  L 268.083578 274.528586  L 268.083578 270.285945  z " clip-path="url(#p66798afa33)" style="fill: #1f77b4; stroke: #ffffff; stroke-width: 0.48"/>
    <path d="M 272.775188 269.481038  L 272.775188 273.723679  L 277.017829 273.723679  L 277.017829 269.481038  z " clip-path="url(#p66798afa33)" style="fill: #1f77b4; stroke: #ffffff; stroke-width: 0.48"/>
    <path d="M 244.012484 232.928174  L 244.012484 237.170815  L 248.255124 237.170815  L 248.255124 232.928174  z " clip-path="url(#p66798afa33)" style="fill: #1f77b4; stroke: #ffffff; stroke-width: 0.48"/>
    <path d="M 77.012106 204.265431  L 78.512106 202.765431  L 80.012106 204.265431  L 81.512106 202.765431  L 80.012106 201.265431  L 81.512106 199.765431  L 80.012106 198.265431  L 78.512106 199.765431  L 77.012106 198.265431  L 75.512106 199.765431  L 77.012106 201.265431  L 75.512106 202.765431  z " clip-path="url(#p66798afa33)" style="fill: #ff7f0e; stroke: #ffffff; stroke-width: 0.48"/>
    <path d="M 97.247831 209.16773  L 98.747831 207.66773  L 100.247831 209.16773  L 101.747831 207.66773  L 100.247831 206.16773  L 101.747831 204.66773  L 100.247831 203.16773  L 98.747831 204.66773  L 97.247831 203.16773  L 95.747831 204.66773  L 97.247831 206.16773  L 95.747831 207.66773  z " clip-path="url(#p66798afa33)" style="fill: #ff7f0e; stroke: #ffffff; stroke-width: 0.48"/>
    <path d="M 301.07916 183.23808  L 301.07916 187.48072  L 305.3218 187.48072  L 305.3218 183.23808  z " clip-path="url(#p66798afa33)" style="fill: #1f77b4; stroke: #ffffff; stroke-width: 0.48"/>
    <path d="M 298.331042 181.471254  L 298.331042 185.713895  L 302.573683 185.713895  L 302.573683 181.471254  z " clip-path="url(#p66798afa33)" style="fill: #1f77b4; stroke: #ffffff; stroke-width: 0.48"/>
    <path d="M 227.700902 207.064041  L 227.700902 211.306682  L 231.943543 211.306682  L 231.943543 207.064041  z " clip-path="url(#p66798afa33)" style="fill: #1f77b4; stroke: #ffffff; stroke-width: 0.48"/>
    <path d="M 217.049178 262.809689  L 217.049178 267.05233  L 221.291819 267.05233  L 221.291819 262.809689  z " clip-path="url(#p66798afa33)" style="fill: #1f77b4; stroke: #ffffff; stroke-width: 0.48"/>
    <path d="M 232.616444 236.158389  L 232.616444 240.40103  L 236.859085 240.40103  L 236.859085 236.158389  z " clip-path="url(#p66798afa33)" style="fill: #1f77b4; stroke: #ffffff; stroke-width: 0.48"/>
    <path d="M 243.642262 254.799214  L 243.642262 259.041855  L 247.884902 259.041855  L 247.884902 254.799214  z " clip-path="url(#p66798afa33)" style="fill: #1f77b4; stroke: #ffffff; stroke-width: 0.48"/>
    <path d="M 392.865046 165.123178  C 393.660656 165.123178 394.423786 164.807079 394.986367 164.244498  C 395.548947 163.681918 395.865046 162.918787 395.865046 162.123178  C 395.865046 161.327569 395.548947 160.564439 394.986367 160.001858  C 394.423786 159.439277 393.660656 159.123178 392.865046 159.123178  C 392.069437 159.123178 391.306307 159.439277 390.743726 160.001858  C 390.181145 160.564439 389.865046 161.327569 389.865046 162.123178  C 389.865046 162.918787 390.181145 163.681918 390.743726 164.244498  C 391.306307 164.807079 392.069437 165.123178 392.865046 165.123178  z " clip-path="url(#p66798afa33)" style="fill: #1f77b4; stroke: #ffffff; stroke-width: 0.48"/>
    <path d="M 120.24544 153.289677  L 121.74544 151.789677  L 123.24544 153.289677  L 124.74544 151.789677  L 123.24544 150.289677  L 124.74544 148.789677  L 123.24544 147.289677  L 121.74544 148.789677  L 120.24544 147.289677  L 118.74544 148.789677  L 120.24544 150.289677  L 118.74544 151.789677  z " clip-path="url(#p66798afa33)" style="fill: #ff7f0e; stroke: #ffffff; stroke-width: 0.48"/>
    <path d="M 212.45882 229.838846  L 212.45882 234.081487  L 216.701461 234.081487  L 216.701461 229.838846  z " clip-path="url(#p66798afa33)" style="fill: #1f77b4; stroke: #ffffff; stroke-width: 0.48"/>
    <path d="M 235.295064 205.221365  L 235.295064 209.464005  L 239.537705 209.464005  L 239.537705 205.221365  z " clip-path="url(#p66798afa33)" style="fill: #1f77b4; stroke: #ffffff; stroke-width: 0.48"/>
    <path d="M 198.305471 228.125341  L 198.305471 232.367982  L 202.548111 232.367982  L 202.548111 228.125341  z " clip-path="url(#p66798afa33)" style="fill: #1f77b4; stroke: #ffffff; stroke-width: 0.48"/>
    <path d="M 224.226526 245.859782  L 224.226526 250.102422  L 228.469166 250.102422  L 228.469166 245.859782  z " clip-path="url(#p66798afa33)" style="fill: #1f77b4; stroke: #ffffff; stroke-width: 0.48"/>
    <path d="M 259.74022 242.147487  L 259.74022 246.390127  L 263.982861 246.390127  L 263.982861 242.147487  z " clip-path="url(#p66798afa33)" style="fill: #1f77b4; stroke: #ffffff; stroke-width: 0.48"/>
    <path d="M 387.154472 144.252082  C 387.950082 144.252082 388.713212 143.935983 389.275793 143.373402  C 389.838373 142.810822 390.154472 142.047691 390.154472 141.252082  C 390.154472 140.456473 389.838373 139.693342 389.275793 139.130762  C 388.713212 138.568181 387.950082 138.252082 387.154472 138.252082  C 386.358863 138.252082 385.595733 138.568181 385.033152 139.130762  C 384.470571 139.693342 384.154472 140.456473 384.154472 141.252082  C 384.154472 142.047691 384.470571 142.810822 385.033152 143.373402  C 385.595733 143.935983 386.358863 144.252082 387.154472 144.252082  z " clip-path="url(#p66798afa33)" style="fill: #1f77b4; stroke: #ffffff; stroke-width: 0.48"/>
   </g>
   <g id="matplotlib.axis_1">
    <g id="xtick_1">
     <g id="line2d_1">
      <defs>
       <path id="m57eddcbf46" d="M 0 0  L 0 3.5  " style="stroke: #000000; stroke-width: 0.8"/>
      </defs>
      <g>
       <use xlink:href="#m57eddcbf46" x="79.716465" y="288.430125" style="stroke: #000000; stroke-width: 0.8"/>
      </g>
     </g>
     <g id="text_1">
      <!-- 2000 -->
      <g transform="translate(62.801622 303.028562) scale(0.1 -0.1)">
       <defs>
        <path id="DejaVuSans-2212" d="M 678 2272  L 4684 2272  L 4684 1741  L 678 1741  L 678 2272  z " transform="scale(0.015625)"/>
        <path id="DejaVuSans-32" d="M 1228 531  L 3431 531  L 3431 0  L 469 0  L 469 531  Q 828 903 1448 1529  Q 2069 2156 2228 2338  Q 2531 2678 2651 2914  Q 2772 3150 2772 3378  Q 2772 3750 2511 3984  Q 2250 4219 1831 4219  Q 1534 4219 1204 4116  Q 875 4013 500 3803  L 500 4441  Q 881 4594 1212 4672  Q 1544 4750 1819 4750  Q 2544 4750 2975 4387  Q 3406 4025 3406 3419  Q 3406 3131 3298 2873  Q 3191 2616 2906 2266  Q 2828 2175 2409 1742  Q 1991 1309 1228 531  z " transform="scale(0.015625)"/>
        <path id="DejaVuSans-30" d="M 2034 4250  Q 1547 4250 1301 3770  Q 1056 3291 1056 2328  Q 1056 1369 1301 889  Q 1547 409 2034 409  Q 2525 409 2770 889  Q 3016 1369 3016 2328  Q 3016 3291 2770 3770  Q 2525 4250 2034 4250  z M 2034 4750  Q 2819 4750 3233 4129  Q 3647 3509 3647 2328  Q 3647 1150 3233 529  Q 2819 -91 2034 -91  Q 1250 -91 836 529  Q 422 1150 422 2328  Q 422 3509 836 4129  Q 1250 4750 2034 4750  z " transform="scale(0.015625)"/>
       </defs>
       <use xlink:href="#DejaVuSans-2212"/>
       <use xlink:href="#DejaVuSans-32" x="83.789062"/>
       <use xlink:href="#DejaVuSans-30" x="147.412109"/>
       <use xlink:href="#DejaVuSans-30" x="211.035156"/>
       <use xlink:href="#DejaVuSans-30" x="274.658203"/>
      </g>
     </g>
    </g>
    <g id="xtick_2">
     <g id="line2d_2">
      <g>
       <use xlink:href="#m57eddcbf46" x="149.925782" y="288.430125" style="stroke: #000000; stroke-width: 0.8"/>
      </g>
     </g>
     <g id="text_2">
      <!-- 1000 -->
      <g transform="translate(133.010938 303.028562) scale(0.1 -0.1)">
       <defs>
        <path id="DejaVuSans-31" d="M 794 531  L 1825 531  L 1825 4091  L 703 3866  L 703 4441  L 1819 4666  L 2450 4666  L 2450 531  L 3481 531  L 3481 0  L 794 0  L 794 531  z " transform="scale(0.015625)"/>
       </defs>
       <use xlink:href="#DejaVuSans-2212"/>
       <use xlink:href="#DejaVuSans-31" x="83.789062"/>
       <use xlink:href="#DejaVuSans-30" x="147.412109"/>
       <use xlink:href="#DejaVuSans-30" x="211.035156"/>
       <use xlink:href="#DejaVuSans-30" x="274.658203"/>
      </g>
     </g>
    </g>
    <g id="xtick_3">
     <g id="line2d_3">
      <g>
       <use xlink:href="#m57eddcbf46" x="220.135098" y="288.430125" style="stroke: #000000; stroke-width: 0.8"/>
      </g>
     </g>
     <g id="text_3">
      <!-- 0 -->
      <g transform="translate(216.953848 303.028562) scale(0.1 -0.1)">
       <use xlink:href="#DejaVuSans-30"/>
      </g>
     </g>
    </g>
    <g id="xtick_4">
     <g id="line2d_4">
      <g>
       <use xlink:href="#m57eddcbf46" x="290.344415" y="288.430125" style="stroke: #000000; stroke-width: 0.8"/>
      </g>
     </g>
     <g id="text_4">
      <!-- 1000 -->
      <g transform="translate(277.619415 303.028562) scale(0.1 -0.1)">
       <use xlink:href="#DejaVuSans-31"/>
       <use xlink:href="#DejaVuSans-30" x="63.623047"/>
       <use xlink:href="#DejaVuSans-30" x="127.246094"/>
       <use xlink:href="#DejaVuSans-30" x="190.869141"/>
      </g>
     </g>
    </g>
    <g id="xtick_5">
     <g id="line2d_5">
      <g>
       <use xlink:href="#m57eddcbf46" x="360.553731" y="288.430125" style="stroke: #000000; stroke-width: 0.8"/>
      </g>
     </g>
     <g id="text_5">
      <!-- 2000 -->
      <g transform="translate(347.828731 303.028562) scale(0.1 -0.1)">
       <use xlink:href="#DejaVuSans-32"/>
       <use xlink:href="#DejaVuSans-30" x="63.623047"/>
       <use xlink:href="#DejaVuSans-30" x="127.246094"/>
       <use xlink:href="#DejaVuSans-30" x="190.869141"/>
      </g>
     </g>
    </g>
    <g id="text_6">
     <!-- PC1 (22.334%) -->
     <g transform="translate(202.843594 316.706687) scale(0.1 -0.1)">
      <defs>
       <path id="DejaVuSans-50" d="M 1259 4147  L 1259 2394  L 2053 2394  Q 2494 2394 2734 2622  Q 2975 2850 2975 3272  Q 2975 3691 2734 3919  Q 2494 4147 2053 4147  L 1259 4147  z M 628 4666  L 2053 4666  Q 2838 4666 3239 4311  Q 3641 3956 3641 3272  Q 3641 2581 3239 2228  Q 2838 1875 2053 1875  L 1259 1875  L 1259 0  L 628 0  L 628 4666  z " transform="scale(0.015625)"/>
       <path id="DejaVuSans-43" d="M 4122 4306  L 4122 3641  Q 3803 3938 3442 4084  Q 3081 4231 2675 4231  Q 1875 4231 1450 3742  Q 1025 3253 1025 2328  Q 1025 1406 1450 917  Q 1875 428 2675 428  Q 3081 428 3442 575  Q 3803 722 4122 1019  L 4122 359  Q 3791 134 3420 21  Q 3050 -91 2638 -91  Q 1578 -91 968 557  Q 359 1206 359 2328  Q 359 3453 968 4101  Q 1578 4750 2638 4750  Q 3056 4750 3426 4639  Q 3797 4528 4122 4306  z " transform="scale(0.015625)"/>
       <path id="DejaVuSans-20" transform="scale(0.015625)"/>
       <path id="DejaVuSans-28" d="M 1984 4856  Q 1566 4138 1362 3434  Q 1159 2731 1159 2009  Q 1159 1288 1364 580  Q 1569 -128 1984 -844  L 1484 -844  Q 1016 -109 783 600  Q 550 1309 550 2009  Q 550 2706 781 3412  Q 1013 4119 1484 4856  L 1984 4856  z " transform="scale(0.015625)"/>
       <path id="DejaVuSans-2e" d="M 684 794  L 1344 794  L 1344 0  L 684 0  L 684 794  z " transform="scale(0.015625)"/>
       <path id="DejaVuSans-33" d="M 2597 2516  Q 3050 2419 3304 2112  Q 3559 1806 3559 1356  Q 3559 666 3084 287  Q 2609 -91 1734 -91  Q 1441 -91 1130 -33  Q 819 25 488 141  L 488 750  Q 750 597 1062 519  Q 1375 441 1716 441  Q 2309 441 2620 675  Q 2931 909 2931 1356  Q 2931 1769 2642 2001  Q 2353 2234 1838 2234  L 1294 2234  L 1294 2753  L 1863 2753  Q 2328 2753 2575 2939  Q 2822 3125 2822 3475  Q 2822 3834 2567 4026  Q 2313 4219 1838 4219  Q 1578 4219 1281 4162  Q 984 4106 628 3988  L 628 4550  Q 988 4650 1302 4700  Q 1616 4750 1894 4750  Q 2613 4750 3031 4423  Q 3450 4097 3450 3541  Q 3450 3153 3228 2886  Q 3006 2619 2597 2516  z " transform="scale(0.015625)"/>
       <path id="DejaVuSans-34" d="M 2419 4116  L 825 1625  L 2419 1625  L 2419 4116  z M 2253 4666  L 3047 4666  L 3047 1625  L 3713 1625  L 3713 1100  L 3047 1100  L 3047 0  L 2419 0  L 2419 1100  L 313 1100  L 313 1709  L 2253 4666  z " transform="scale(0.015625)"/>
       <path id="DejaVuSans-25" d="M 4653 2053  Q 4381 2053 4226 1822  Q 4072 1591 4072 1178  Q 4072 772 4226 539  Q 4381 306 4653 306  Q 4919 306 5073 539  Q 5228 772 5228 1178  Q 5228 1588 5073 1820  Q 4919 2053 4653 2053  z M 4653 2450  Q 5147 2450 5437 2106  Q 5728 1763 5728 1178  Q 5728 594 5436 251  Q 5144 -91 4653 -91  Q 4153 -91 3862 251  Q 3572 594 3572 1178  Q 3572 1766 3864 2108  Q 4156 2450 4653 2450  z M 1428 4353  Q 1159 4353 1004 4120  Q 850 3888 850 3481  Q 850 3069 1003 2837  Q 1156 2606 1428 2606  Q 1700 2606 1854 2837  Q 2009 3069 2009 3481  Q 2009 3884 1853 4118  Q 1697 4353 1428 4353  z M 4250 4750  L 4750 4750  L 1831 -91  L 1331 -91  L 4250 4750  z M 1428 4750  Q 1922 4750 2215 4408  Q 2509 4066 2509 3481  Q 2509 2891 2217 2550  Q 1925 2209 1428 2209  Q 931 2209 642 2551  Q 353 2894 353 3481  Q 353 4063 643 4406  Q 934 4750 1428 4750  z " transform="scale(0.015625)"/>
       <path id="DejaVuSans-29" d="M 513 4856  L 1013 4856  Q 1481 4119 1714 3412  Q 1947 2706 1947 2009  Q 1947 1309 1714 600  Q 1481 -109 1013 -844  L 513 -844  Q 928 -128 1133 580  Q 1338 1288 1338 2009  Q 1338 2731 1133 3434  Q 928 4138 513 4856  z " transform="scale(0.015625)"/>
      </defs>
      <use xlink:href="#DejaVuSans-50"/>
      <use xlink:href="#DejaVuSans-43" x="60.302734"/>
      <use xlink:href="#DejaVuSans-31" x="130.126953"/>
      <use xlink:href="#DejaVuSans-20" x="193.75"/>
      <use xlink:href="#DejaVuSans-28" x="225.537109"/>
      <use xlink:href="#DejaVuSans-32" x="264.550781"/>
      <use xlink:href="#DejaVuSans-32" x="328.173828"/>
      <use xlink:href="#DejaVuSans-2e" x="391.796875"/>
      <use xlink:href="#DejaVuSans-33" x="423.583984"/>
      <use xlink:href="#DejaVuSans-33" x="487.207031"/>
      <use xlink:href="#DejaVuSans-34" x="550.830078"/>
      <use xlink:href="#DejaVuSans-25" x="614.453125"/>
      <use xlink:href="#DejaVuSans-29" x="709.472656"/>
     </g>
    </g>
   </g>
   <g id="matplotlib.axis_2">
    <g id="ytick_1">
     <g id="line2d_6">
      <defs>
       <path id="md3d5b8b8a7" d="M 0 0  L -3.5 0  " style="stroke: #000000; stroke-width: 0.8"/>
      </defs>
      <g>
       <use xlink:href="#md3d5b8b8a7" x="61.707813" y="269.875952" style="stroke: #000000; stroke-width: 0.8"/>
      </g>
     </g>
     <g id="text_7">
      <!-- 1000 -->
      <g transform="translate(20.878125 273.675171) scale(0.1 -0.1)">
       <use xlink:href="#DejaVuSans-2212"/>
       <use xlink:href="#DejaVuSans-31" x="83.789062"/>
       <use xlink:href="#DejaVuSans-30" x="147.412109"/>
       <use xlink:href="#DejaVuSans-30" x="211.035156"/>
       <use xlink:href="#DejaVuSans-30" x="274.658203"/>
      </g>
     </g>
    </g>
    <g id="ytick_2">
     <g id="line2d_7">
      <g>
       <use xlink:href="#md3d5b8b8a7" x="61.707813" y="240.011568" style="stroke: #000000; stroke-width: 0.8"/>
      </g>
     </g>
     <g id="text_8">
      <!-- 500 -->
      <g transform="translate(27.240625 243.810787) scale(0.1 -0.1)">
       <defs>
        <path id="DejaVuSans-35" d="M 691 4666  L 3169 4666  L 3169 4134  L 1269 4134  L 1269 2991  Q 1406 3038 1543 3061  Q 1681 3084 1819 3084  Q 2600 3084 3056 2656  Q 3513 2228 3513 1497  Q 3513 744 3044 326  Q 2575 -91 1722 -91  Q 1428 -91 1123 -41  Q 819 9 494 109  L 494 744  Q 775 591 1075 516  Q 1375 441 1709 441  Q 2250 441 2565 725  Q 2881 1009 2881 1497  Q 2881 1984 2565 2268  Q 2250 2553 1709 2553  Q 1456 2553 1204 2497  Q 953 2441 691 2322  L 691 4666  z " transform="scale(0.015625)"/>
       </defs>
       <use xlink:href="#DejaVuSans-2212"/>
       <use xlink:href="#DejaVuSans-35" x="83.789062"/>
       <use xlink:href="#DejaVuSans-30" x="147.412109"/>
       <use xlink:href="#DejaVuSans-30" x="211.035156"/>
      </g>
     </g>
    </g>
    <g id="ytick_3">
     <g id="line2d_8">
      <g>
       <use xlink:href="#md3d5b8b8a7" x="61.707813" y="210.147184" style="stroke: #000000; stroke-width: 0.8"/>
      </g>
     </g>
     <g id="text_9">
      <!-- 0 -->
      <g transform="translate(48.345313 213.946403) scale(0.1 -0.1)">
       <use xlink:href="#DejaVuSans-30"/>
      </g>
     </g>
    </g>
    <g id="ytick_4">
     <g id="line2d_9">
      <g>
       <use xlink:href="#md3d5b8b8a7" x="61.707813" y="180.2828" style="stroke: #000000; stroke-width: 0.8"/>
      </g>
     </g>
     <g id="text_10">
      <!-- 500 -->
      <g transform="translate(35.620312 184.082018) scale(0.1 -0.1)">
       <use xlink:href="#DejaVuSans-35"/>
       <use xlink:href="#DejaVuSans-30" x="63.623047"/>
       <use xlink:href="#DejaVuSans-30" x="127.246094"/>
      </g>
     </g>
    </g>
    <g id="ytick_5">
     <g id="line2d_10">
      <g>
       <use xlink:href="#md3d5b8b8a7" x="61.707813" y="150.418415" style="stroke: #000000; stroke-width: 0.8"/>
      </g>
     </g>
     <g id="text_11">
      <!-- 1000 -->
      <g transform="translate(29.257812 154.217634) scale(0.1 -0.1)">
       <use xlink:href="#DejaVuSans-31"/>
       <use xlink:href="#DejaVuSans-30" x="63.623047"/>
       <use xlink:href="#DejaVuSans-30" x="127.246094"/>
       <use xlink:href="#DejaVuSans-30" x="190.869141"/>
      </g>
     </g>
    </g>
    <g id="ytick_6">
     <g id="line2d_11">
      <g>
       <use xlink:href="#md3d5b8b8a7" x="61.707813" y="120.554031" style="stroke: #000000; stroke-width: 0.8"/>
      </g>
     </g>
     <g id="text_12">
      <!-- 1500 -->
      <g transform="translate(29.257812 124.35325) scale(0.1 -0.1)">
       <use xlink:href="#DejaVuSans-31"/>
       <use xlink:href="#DejaVuSans-35" x="63.623047"/>
       <use xlink:href="#DejaVuSans-30" x="127.246094"/>
       <use xlink:href="#DejaVuSans-30" x="190.869141"/>
      </g>
     </g>
    </g>
    <g id="ytick_7">
     <g id="line2d_12">
      <g>
       <use xlink:href="#md3d5b8b8a7" x="61.707813" y="90.689647" style="stroke: #000000; stroke-width: 0.8"/>
      </g>
     </g>
     <g id="text_13">
      <!-- 2000 -->
      <g transform="translate(29.257812 94.488866) scale(0.1 -0.1)">
       <use xlink:href="#DejaVuSans-32"/>
       <use xlink:href="#DejaVuSans-30" x="63.623047"/>
       <use xlink:href="#DejaVuSans-30" x="127.246094"/>
       <use xlink:href="#DejaVuSans-30" x="190.869141"/>
      </g>
     </g>
    </g>
    <g id="ytick_8">
     <g id="line2d_13">
      <g>
       <use xlink:href="#md3d5b8b8a7" x="61.707813" y="60.825263" style="stroke: #000000; stroke-width: 0.8"/>
      </g>
     </g>
     <g id="text_14">
      <!-- 2500 -->
      <g transform="translate(29.257812 64.624481) scale(0.1 -0.1)">
       <use xlink:href="#DejaVuSans-32"/>
       <use xlink:href="#DejaVuSans-35" x="63.623047"/>
       <use xlink:href="#DejaVuSans-30" x="127.246094"/>
       <use xlink:href="#DejaVuSans-30" x="190.869141"/>
      </g>
     </g>
    </g>
    <g id="ytick_9">
     <g id="line2d_14">
      <g>
       <use xlink:href="#md3d5b8b8a7" x="61.707813" y="30.960878" style="stroke: #000000; stroke-width: 0.8"/>
      </g>
     </g>
     <g id="text_15">
      <!-- 3000 -->
      <g transform="translate(29.257812 34.760097) scale(0.1 -0.1)">
       <use xlink:href="#DejaVuSans-33"/>
       <use xlink:href="#DejaVuSans-30" x="63.623047"/>
       <use xlink:href="#DejaVuSans-30" x="127.246094"/>
       <use xlink:href="#DejaVuSans-30" x="190.869141"/>
      </g>
     </g>
    </g>
    <g id="text_16">
     <!-- PC2 (9.011%) -->
     <g transform="translate(14.798438 189.617094) rotate(-90) scale(0.1 -0.1)">
      <defs>
       <path id="DejaVuSans-39" d="M 703 97  L 703 672  Q 941 559 1184 500  Q 1428 441 1663 441  Q 2288 441 2617 861  Q 2947 1281 2994 2138  Q 2813 1869 2534 1725  Q 2256 1581 1919 1581  Q 1219 1581 811 2004  Q 403 2428 403 3163  Q 403 3881 828 4315  Q 1253 4750 1959 4750  Q 2769 4750 3195 4129  Q 3622 3509 3622 2328  Q 3622 1225 3098 567  Q 2575 -91 1691 -91  Q 1453 -91 1209 -44  Q 966 3 703 97  z M 1959 2075  Q 2384 2075 2632 2365  Q 2881 2656 2881 3163  Q 2881 3666 2632 3958  Q 2384 4250 1959 4250  Q 1534 4250 1286 3958  Q 1038 3666 1038 3163  Q 1038 2656 1286 2365  Q 1534 2075 1959 2075  z " transform="scale(0.015625)"/>
      </defs>
      <use xlink:href="#DejaVuSans-50"/>
      <use xlink:href="#DejaVuSans-43" x="60.302734"/>
      <use xlink:href="#DejaVuSans-32" x="130.126953"/>
      <use xlink:href="#DejaVuSans-20" x="193.75"/>
      <use xlink:href="#DejaVuSans-28" x="225.537109"/>
      <use xlink:href="#DejaVuSans-39" x="264.550781"/>
      <use xlink:href="#DejaVuSans-2e" x="328.173828"/>
      <use xlink:href="#DejaVuSans-30" x="359.960938"/>
      <use xlink:href="#DejaVuSans-31" x="423.583984"/>
      <use xlink:href="#DejaVuSans-31" x="487.207031"/>
      <use xlink:href="#DejaVuSans-25" x="550.830078"/>
      <use xlink:href="#DejaVuSans-29" x="645.849609"/>
     </g>
    </g>
   </g>
   <g id="line2d_15"/>
   <g id="line2d_16"/>
   <g id="line2d_17"/>
   <g id="line2d_18"/>
   <g id="line2d_19"/>
   <g id="line2d_20"/>
   <g id="line2d_21"/>
   <g id="line2d_22"/>
   <g id="patch_3">
    <path d="M 61.707813 288.430125  L 61.707813 22.318125  " style="fill: none; stroke: #000000; stroke-width: 0.8; stroke-linejoin: miter; stroke-linecap: square"/>
   </g>
   <g id="patch_4">
    <path d="M 418.827813 288.430125  L 418.827813 22.318125  " style="fill: none; stroke: #000000; stroke-width: 0.8; stroke-linejoin: miter; stroke-linecap: square"/>
   </g>
   <g id="patch_5">
    <path d="M 61.707813 288.430125  L 418.827813 288.430125  " style="fill: none; stroke: #000000; stroke-width: 0.8; stroke-linejoin: miter; stroke-linecap: square"/>
   </g>
   <g id="patch_6">
    <path d="M 61.707813 22.318125  L 418.827813 22.318125  " style="fill: none; stroke: #000000; stroke-width: 0.8; stroke-linejoin: miter; stroke-linecap: square"/>
   </g>
   <g id="text_17">
    <!-- 333 PCA plot: PC1/PC2 -->
    <g transform="translate(172.390938 16.318125) scale(0.12 -0.12)">
     <defs>
      <path id="DejaVuSans-41" d="M 2188 4044  L 1331 1722  L 3047 1722  L 2188 4044  z M 1831 4666  L 2547 4666  L 4325 0  L 3669 0  L 3244 1197  L 1141 1197  L 716 0  L 50 0  L 1831 4666  z " transform="scale(0.015625)"/>
      <path id="DejaVuSans-70" d="M 1159 525  L 1159 -1331  L 581 -1331  L 581 3500  L 1159 3500  L 1159 2969  Q 1341 3281 1617 3432  Q 1894 3584 2278 3584  Q 2916 3584 3314 3078  Q 3713 2572 3713 1747  Q 3713 922 3314 415  Q 2916 -91 2278 -91  Q 1894 -91 1617 61  Q 1341 213 1159 525  z M 3116 1747  Q 3116 2381 2855 2742  Q 2594 3103 2138 3103  Q 1681 3103 1420 2742  Q 1159 2381 1159 1747  Q 1159 1113 1420 752  Q 1681 391 2138 391  Q 2594 391 2855 752  Q 3116 1113 3116 1747  z " transform="scale(0.015625)"/>
      <path id="DejaVuSans-6c" d="M 603 4863  L 1178 4863  L 1178 0  L 603 0  L 603 4863  z " transform="scale(0.015625)"/>
      <path id="DejaVuSans-6f" d="M 1959 3097  Q 1497 3097 1228 2736  Q 959 2375 959 1747  Q 959 1119 1226 758  Q 1494 397 1959 397  Q 2419 397 2687 759  Q 2956 1122 2956 1747  Q 2956 2369 2687 2733  Q 2419 3097 1959 3097  z M 1959 3584  Q 2709 3584 3137 3096  Q 3566 2609 3566 1747  Q 3566 888 3137 398  Q 2709 -91 1959 -91  Q 1206 -91 779 398  Q 353 888 353 1747  Q 353 2609 779 3096  Q 1206 3584 1959 3584  z " transform="scale(0.015625)"/>
      <path id="DejaVuSans-74" d="M 1172 4494  L 1172 3500  L 2356 3500  L 2356 3053  L 1172 3053  L 1172 1153  Q 1172 725 1289 603  Q 1406 481 1766 481  L 2356 481  L 2356 0  L 1766 0  Q 1100 0 847 248  Q 594 497 594 1153  L 594 3053  L 172 3053  L 172 3500  L 594 3500  L 594 4494  L 1172 4494  z " transform="scale(0.015625)"/>
      <path id="DejaVuSans-3a" d="M 750 794  L 1409 794  L 1409 0  L 750 0  L 750 794  z M 750 3309  L 1409 3309  L 1409 2516  L 750 2516  L 750 3309  z " transform="scale(0.015625)"/>
      <path id="DejaVuSans-2f" d="M 1625 4666  L 2156 4666  L 531 -594  L 0 -594  L 1625 4666  z " transform="scale(0.015625)"/>
     </defs>
     <use xlink:href="#DejaVuSans-33"/>
     <use xlink:href="#DejaVuSans-33" x="63.623047"/>
     <use xlink:href="#DejaVuSans-33" x="127.246094"/>
     <use xlink:href="#DejaVuSans-20" x="190.869141"/>
     <use xlink:href="#DejaVuSans-50" x="222.65625"/>
     <use xlink:href="#DejaVuSans-43" x="282.958984"/>
     <use xlink:href="#DejaVuSans-41" x="352.783203"/>
     <use xlink:href="#DejaVuSans-20" x="421.191406"/>
     <use xlink:href="#DejaVuSans-70" x="452.978516"/>
     <use xlink:href="#DejaVuSans-6c" x="516.455078"/>
     <use xlink:href="#DejaVuSans-6f" x="544.238281"/>
     <use xlink:href="#DejaVuSans-74" x="605.419922"/>
     <use xlink:href="#DejaVuSans-3a" x="644.628906"/>
     <use xlink:href="#DejaVuSans-20" x="678.320312"/>
     <use xlink:href="#DejaVuSans-50" x="710.107422"/>
     <use xlink:href="#DejaVuSans-43" x="770.410156"/>
     <use xlink:href="#DejaVuSans-31" x="840.234375"/>
     <use xlink:href="#DejaVuSans-2f" x="903.857422"/>
     <use xlink:href="#DejaVuSans-50" x="937.548828"/>
     <use xlink:href="#DejaVuSans-43" x="997.851562"/>
     <use xlink:href="#DejaVuSans-32" x="1067.675781"/>
    </g>
   </g>
   <g id="legend_1">
    <g id="patch_7">
     <path d="M 68.707813 147.743125  L 171.895312 147.743125  Q 173.895312 147.743125 173.895312 145.743125  L 173.895312 29.318125  Q 173.895312 27.318125 171.895312 27.318125  L 68.707813 27.318125  Q 66.707813 27.318125 66.707813 29.318125  L 66.707813 145.743125  Q 66.707813 147.743125 68.707813 147.743125  z " style="fill: #ffffff; opacity: 0.8; stroke: #cccccc; stroke-linejoin: miter"/>
    </g>
    <g id="line2d_23"/>
    <g id="text_18">
     <!-- Tissue -->
     <g transform="translate(98.707813 38.916562) scale(0.1 -0.1)">
      <defs>
       <path id="DejaVuSans-54" d="M -19 4666  L 3928 4666  L 3928 4134  L 2272 4134  L 2272 0  L 1638 0  L 1638 4134  L -19 4134  L -19 4666  z " transform="scale(0.015625)"/>
       <path id="DejaVuSans-69" d="M 603 3500  L 1178 3500  L 1178 0  L 603 0  L 603 3500  z M 603 4863  L 1178 4863  L 1178 4134  L 603 4134  L 603 4863  z " transform="scale(0.015625)"/>
       <path id="DejaVuSans-73" d="M 2834 3397  L 2834 2853  Q 2591 2978 2328 3040  Q 2066 3103 1784 3103  Q 1356 3103 1142 2972  Q 928 2841 928 2578  Q 928 2378 1081 2264  Q 1234 2150 1697 2047  L 1894 2003  Q 2506 1872 2764 1633  Q 3022 1394 3022 966  Q 3022 478 2636 193  Q 2250 -91 1575 -91  Q 1294 -91 989 -36  Q 684 19 347 128  L 347 722  Q 666 556 975 473  Q 1284 391 1588 391  Q 1994 391 2212 530  Q 2431 669 2431 922  Q 2431 1156 2273 1281  Q 2116 1406 1581 1522  L 1381 1569  Q 847 1681 609 1914  Q 372 2147 372 2553  Q 372 3047 722 3315  Q 1072 3584 1716 3584  Q 2034 3584 2315 3537  Q 2597 3491 2834 3397  z " transform="scale(0.015625)"/>
       <path id="DejaVuSans-75" d="M 544 1381  L 544 3500  L 1119 3500  L 1119 1403  Q 1119 906 1312 657  Q 1506 409 1894 409  Q 2359 409 2629 706  Q 2900 1003 2900 1516  L 2900 3500  L 3475 3500  L 3475 0  L 2900 0  L 2900 538  Q 2691 219 2414 64  Q 2138 -91 1772 -91  Q 1169 -91 856 284  Q 544 659 544 1381  z M 1991 3584  L 1991 3584  z " transform="scale(0.015625)"/>
       <path id="DejaVuSans-65" d="M 3597 1894  L 3597 1613  L 953 1613  Q 991 1019 1311 708  Q 1631 397 2203 397  Q 2534 397 2845 478  Q 3156 559 3463 722  L 3463 178  Q 3153 47 2828 -22  Q 2503 -91 2169 -91  Q 1331 -91 842 396  Q 353 884 353 1716  Q 353 2575 817 3079  Q 1281 3584 2069 3584  Q 2775 3584 3186 3129  Q 3597 2675 3597 1894  z M 3022 2063  Q 3016 2534 2758 2815  Q 2500 3097 2075 3097  Q 1594 3097 1305 2825  Q 1016 2553 972 2059  L 3022 2063  z " transform="scale(0.015625)"/>
      </defs>
      <use xlink:href="#DejaVuSans-54"/>
      <use xlink:href="#DejaVuSans-69" x="57.958984"/>
      <use xlink:href="#DejaVuSans-73" x="85.742188"/>
      <use xlink:href="#DejaVuSans-73" x="137.841797"/>
      <use xlink:href="#DejaVuSans-75" x="189.941406"/>
      <use xlink:href="#DejaVuSans-65" x="253.320312"/>
     </g>
    </g>
    <g id="line2d_24">
     <defs>
      <path id="m2ab8902e08" d="M 0 3  C 0.795609 3 1.55874 2.683901 2.12132 2.12132  C 2.683901 1.55874 3 0.795609 3 0  C 3 -0.795609 2.683901 -1.55874 2.12132 -2.12132  C 1.55874 -2.683901 0.795609 -3 0 -3  C -0.795609 -3 -1.55874 -2.683901 -2.12132 -2.12132  C -2.683901 -1.55874 -3 -0.795609 -3 0  C -3 0.795609 -2.683901 1.55874 -2.12132 2.12132  C -1.55874 2.683901 -0.795609 3 0 3  z " style="stroke: #ffffff; stroke-width: 0.48"/>
     </defs>
     <g>
      <use xlink:href="#m2ab8902e08" x="80.707813" y="50.094688" style="fill: #1f77b4; stroke: #ffffff; stroke-width: 0.48"/>
     </g>
    </g>
    <g id="text_19">
     <!-- Liver -->
     <g transform="translate(98.707813 53.594688) scale(0.1 -0.1)">
      <defs>
       <path id="DejaVuSans-4c" d="M 628 4666  L 1259 4666  L 1259 531  L 3531 531  L 3531 0  L 628 0  L 628 4666  z " transform="scale(0.015625)"/>
       <path id="DejaVuSans-76" d="M 191 3500  L 800 3500  L 1894 563  L 2988 3500  L 3597 3500  L 2284 0  L 1503 0  L 191 3500  z " transform="scale(0.015625)"/>
       <path id="DejaVuSans-72" d="M 2631 2963  Q 2534 3019 2420 3045  Q 2306 3072 2169 3072  Q 1681 3072 1420 2755  Q 1159 2438 1159 1844  L 1159 0  L 581 0  L 581 3500  L 1159 3500  L 1159 2956  Q 1341 3275 1631 3429  Q 1922 3584 2338 3584  Q 2397 3584 2469 3576  Q 2541 3569 2628 3553  L 2631 2963  z " transform="scale(0.015625)"/>
      </defs>
      <use xlink:href="#DejaVuSans-4c"/>
      <use xlink:href="#DejaVuSans-69" x="55.712891"/>
      <use xlink:href="#DejaVuSans-76" x="83.496094"/>
      <use xlink:href="#DejaVuSans-65" x="142.675781"/>
      <use xlink:href="#DejaVuSans-72" x="204.199219"/>
     </g>
    </g>
    <g id="line2d_25">
     <defs>
      <path id="m47d476231f" d="M 0 3  C 0.795609 3 1.55874 2.683901 2.12132 2.12132  C 2.683901 1.55874 3 0.795609 3 0  C 3 -0.795609 2.683901 -1.55874 2.12132 -2.12132  C 1.55874 -2.683901 0.795609 -3 0 -3  C -0.795609 -3 -1.55874 -2.683901 -2.12132 -2.12132  C -2.683901 -1.55874 -3 -0.795609 -3 0  C -3 0.795609 -2.683901 1.55874 -2.12132 2.12132  C -1.55874 2.683901 -0.795609 3 0 3  z " style="stroke: #ffffff; stroke-width: 0.48"/>
     </defs>
     <g>
      <use xlink:href="#m47d476231f" x="80.707813" y="64.772812" style="fill: #ff7f0e; stroke: #ffffff; stroke-width: 0.48"/>
     </g>
    </g>
    <g id="text_20">
     <!-- Muscle -->
     <g transform="translate(98.707813 68.272812) scale(0.1 -0.1)">
      <defs>
       <path id="DejaVuSans-4d" d="M 628 4666  L 1569 4666  L 2759 1491  L 3956 4666  L 4897 4666  L 4897 0  L 4281 0  L 4281 4097  L 3078 897  L 2444 897  L 1241 4097  L 1241 0  L 628 0  L 628 4666  z " transform="scale(0.015625)"/>
       <path id="DejaVuSans-63" d="M 3122 3366  L 3122 2828  Q 2878 2963 2633 3030  Q 2388 3097 2138 3097  Q 1578 3097 1268 2742  Q 959 2388 959 1747  Q 959 1106 1268 751  Q 1578 397 2138 397  Q 2388 397 2633 464  Q 2878 531 3122 666  L 3122 134  Q 2881 22 2623 -34  Q 2366 -91 2075 -91  Q 1284 -91 818 406  Q 353 903 353 1747  Q 353 2603 823 3093  Q 1294 3584 2113 3584  Q 2378 3584 2631 3529  Q 2884 3475 3122 3366  z " transform="scale(0.015625)"/>
      </defs>
      <use xlink:href="#DejaVuSans-4d"/>
      <use xlink:href="#DejaVuSans-75" x="86.279297"/>
      <use xlink:href="#DejaVuSans-73" x="149.658203"/>
      <use xlink:href="#DejaVuSans-63" x="201.757812"/>
      <use xlink:href="#DejaVuSans-6c" x="256.738281"/>
      <use xlink:href="#DejaVuSans-65" x="284.521484"/>
     </g>
    </g>
    <g id="line2d_26">
     <defs>
      <path id="mc993fefe71" d="M 0 3  C 0.795609 3 1.55874 2.683901 2.12132 2.12132  C 2.683901 1.55874 3 0.795609 3 0  C 3 -0.795609 2.683901 -1.55874 2.12132 -2.12132  C 1.55874 -2.683901 0.795609 -3 0 -3  C -0.795609 -3 -1.55874 -2.683901 -2.12132 -2.12132  C -2.683901 -1.55874 -3 -0.795609 -3 0  C -3 0.795609 -2.683901 1.55874 -2.12132 2.12132  C -1.55874 2.683901 -0.795609 3 0 3  z " style="stroke: #ffffff; stroke-width: 0.48"/>
     </defs>
     <g>
      <use xlink:href="#mc993fefe71" x="80.707813" y="79.450938" style="fill: #2ca02c; stroke: #ffffff; stroke-width: 0.48"/>
     </g>
    </g>
    <g id="text_21">
     <!-- Other -->
     <g transform="translate(98.707813 82.950938) scale(0.1 -0.1)">
      <defs>
       <path id="DejaVuSans-4f" d="M 2522 4238  Q 1834 4238 1429 3725  Q 1025 3213 1025 2328  Q 1025 1447 1429 934  Q 1834 422 2522 422  Q 3209 422 3611 934  Q 4013 1447 4013 2328  Q 4013 3213 3611 3725  Q 3209 4238 2522 4238  z M 2522 4750  Q 3503 4750 4090 4092  Q 4678 3434 4678 2328  Q 4678 1225 4090 567  Q 3503 -91 2522 -91  Q 1538 -91 948 565  Q 359 1222 359 2328  Q 359 3434 948 4092  Q 1538 4750 2522 4750  z " transform="scale(0.015625)"/>
       <path id="DejaVuSans-68" d="M 3513 2113  L 3513 0  L 2938 0  L 2938 2094  Q 2938 2591 2744 2837  Q 2550 3084 2163 3084  Q 1697 3084 1428 2787  Q 1159 2491 1159 1978  L 1159 0  L 581 0  L 581 4863  L 1159 4863  L 1159 2956  Q 1366 3272 1645 3428  Q 1925 3584 2291 3584  Q 2894 3584 3203 3211  Q 3513 2838 3513 2113  z " transform="scale(0.015625)"/>
      </defs>
      <use xlink:href="#DejaVuSans-4f"/>
      <use xlink:href="#DejaVuSans-74" x="78.710938"/>
      <use xlink:href="#DejaVuSans-68" x="117.919922"/>
      <use xlink:href="#DejaVuSans-65" x="181.298828"/>
      <use xlink:href="#DejaVuSans-72" x="242.822266"/>
     </g>
    </g>
    <g id="line2d_27"/>
    <g id="text_22">
     <!-- Species group -->
     <g transform="translate(98.707813 97.629063) scale(0.1 -0.1)">
      <defs>
       <path id="DejaVuSans-53" d="M 3425 4513  L 3425 3897  Q 3066 4069 2747 4153  Q 2428 4238 2131 4238  Q 1616 4238 1336 4038  Q 1056 3838 1056 3469  Q 1056 3159 1242 3001  Q 1428 2844 1947 2747  L 2328 2669  Q 3034 2534 3370 2195  Q 3706 1856 3706 1288  Q 3706 609 3251 259  Q 2797 -91 1919 -91  Q 1588 -91 1214 -16  Q 841 59 441 206  L 441 856  Q 825 641 1194 531  Q 1563 422 1919 422  Q 2459 422 2753 634  Q 3047 847 3047 1241  Q 3047 1584 2836 1778  Q 2625 1972 2144 2069  L 1759 2144  Q 1053 2284 737 2584  Q 422 2884 422 3419  Q 422 4038 858 4394  Q 1294 4750 2059 4750  Q 2388 4750 2728 4690  Q 3069 4631 3425 4513  z " transform="scale(0.015625)"/>
       <path id="DejaVuSans-67" d="M 2906 1791  Q 2906 2416 2648 2759  Q 2391 3103 1925 3103  Q 1463 3103 1205 2759  Q 947 2416 947 1791  Q 947 1169 1205 825  Q 1463 481 1925 481  Q 2391 481 2648 825  Q 2906 1169 2906 1791  z M 3481 434  Q 3481 -459 3084 -895  Q 2688 -1331 1869 -1331  Q 1566 -1331 1297 -1286  Q 1028 -1241 775 -1147  L 775 -588  Q 1028 -725 1275 -790  Q 1522 -856 1778 -856  Q 2344 -856 2625 -561  Q 2906 -266 2906 331  L 2906 616  Q 2728 306 2450 153  Q 2172 0 1784 0  Q 1141 0 747 490  Q 353 981 353 1791  Q 353 2603 747 3093  Q 1141 3584 1784 3584  Q 2172 3584 2450 3431  Q 2728 3278 2906 2969  L 2906 3500  L 3481 3500  L 3481 434  z " transform="scale(0.015625)"/>
      </defs>
      <use xlink:href="#DejaVuSans-53"/>
      <use xlink:href="#DejaVuSans-70" x="63.476562"/>
      <use xlink:href="#DejaVuSans-65" x="126.953125"/>
      <use xlink:href="#DejaVuSans-63" x="188.476562"/>
      <use xlink:href="#DejaVuSans-69" x="243.457031"/>
      <use xlink:href="#DejaVuSans-65" x="271.240234"/>
      <use xlink:href="#DejaVuSans-73" x="332.763672"/>
      <use xlink:href="#DejaVuSans-20" x="384.863281"/>
      <use xlink:href="#DejaVuSans-67" x="416.650391"/>
      <use xlink:href="#DejaVuSans-72" x="480.126953"/>
      <use xlink:href="#DejaVuSans-6f" x="518.990234"/>
      <use xlink:href="#DejaVuSans-75" x="580.171875"/>
      <use xlink:href="#DejaVuSans-70" x="643.550781"/>
     </g>
    </g>
    <g id="line2d_28">
     <defs>
      <path id="m62c96e3c49" d="M 0 3  C 0.795609 3 1.55874 2.683901 2.12132 2.12132  C 2.683901 1.55874 3 0.795609 3 0  C 3 -0.795609 2.683901 -1.55874 2.12132 -2.12132  C 1.55874 -2.683901 0.795609 -3 0 -3  C -0.795609 -3 -1.55874 -2.683901 -2.12132 -2.12132  C -2.683901 -1.55874 -3 -0.795609 -3 0  C -3 0.795609 -2.683901 1.55874 -2.12132 2.12132  C -1.55874 2.683901 -0.795609 3 0 3  z " style="stroke: #ffffff; stroke-width: 0.48"/>
     </defs>
     <g>
      <use xlink:href="#m62c96e3c49" x="80.707813" y="108.807187" style="fill: #333333; stroke: #ffffff; stroke-width: 0.48"/>
     </g>
    </g>
    <g id="text_23">
     <!-- Bird (22511) -->
     <g transform="translate(98.707813 112.307187) scale(0.1 -0.1)">
      <defs>
       <path id="DejaVuSans-42" d="M 1259 2228  L 1259 519  L 2272 519  Q 2781 519 3026 730  Q 3272 941 3272 1375  Q 3272 1813 3026 2020  Q 2781 2228 2272 2228  L 1259 2228  z M 1259 4147  L 1259 2741  L 2194 2741  Q 2656 2741 2882 2914  Q 3109 3088 3109 3444  Q 3109 3797 2882 3972  Q 2656 4147 2194 4147  L 1259 4147  z M 628 4666  L 2241 4666  Q 2963 4666 3353 4366  Q 3744 4066 3744 3513  Q 3744 3084 3544 2831  Q 3344 2578 2956 2516  Q 3422 2416 3680 2098  Q 3938 1781 3938 1306  Q 3938 681 3513 340  Q 3088 0 2303 0  L 628 0  L 628 4666  z " transform="scale(0.015625)"/>
       <path id="DejaVuSans-64" d="M 2906 2969  L 2906 4863  L 3481 4863  L 3481 0  L 2906 0  L 2906 525  Q 2725 213 2448 61  Q 2172 -91 1784 -91  Q 1150 -91 751 415  Q 353 922 353 1747  Q 353 2572 751 3078  Q 1150 3584 1784 3584  Q 2172 3584 2448 3432  Q 2725 3281 2906 2969  z M 947 1747  Q 947 1113 1208 752  Q 1469 391 1925 391  Q 2381 391 2643 752  Q 2906 1113 2906 1747  Q 2906 2381 2643 2742  Q 2381 3103 1925 3103  Q 1469 3103 1208 2742  Q 947 2381 947 1747  z " transform="scale(0.015625)"/>
      </defs>
      <use xlink:href="#DejaVuSans-42"/>
      <use xlink:href="#DejaVuSans-69" x="68.603516"/>
      <use xlink:href="#DejaVuSans-72" x="96.386719"/>
      <use xlink:href="#DejaVuSans-64" x="135.75"/>
      <use xlink:href="#DejaVuSans-20" x="199.226562"/>
      <use xlink:href="#DejaVuSans-28" x="231.013672"/>
      <use xlink:href="#DejaVuSans-32" x="270.027344"/>
      <use xlink:href="#DejaVuSans-32" x="333.650391"/>
      <use xlink:href="#DejaVuSans-35" x="397.273438"/>
      <use xlink:href="#DejaVuSans-31" x="460.896484"/>
      <use xlink:href="#DejaVuSans-31" x="524.519531"/>
      <use xlink:href="#DejaVuSans-29" x="588.142578"/>
     </g>
    </g>
    <g id="line2d_29">
     <defs>
      <path id="m2e2645cb99" d="M -1.5 3  L 0 1.5  L 1.5 3  L 3 1.5  L 1.5 0  L 3 -1.5  L 1.5 -3  L 0 -1.5  L -1.5 -3  L -3 -1.5  L -1.5 0  L -3 1.5  z " style="stroke: #ffffff; stroke-width: 0.48; stroke-linejoin: miter"/>
     </defs>
     <g>
      <use xlink:href="#m2e2645cb99" x="80.707813" y="123.485312" style="fill: #333333; stroke: #ffffff; stroke-width: 0.48; stroke-linejoin: miter"/>
     </g>
    </g>
    <g id="text_24">
     <!-- Fish (22486) -->
     <g transform="translate(98.707813 126.985312) scale(0.1 -0.1)">
      <defs>
       <path id="DejaVuSans-46" d="M 628 4666  L 3309 4666  L 3309 4134  L 1259 4134  L 1259 2759  L 3109 2759  L 3109 2228  L 1259 2228  L 1259 0  L 628 0  L 628 4666  z " transform="scale(0.015625)"/>
       <path id="DejaVuSans-38" d="M 2034 2216  Q 1584 2216 1326 1975  Q 1069 1734 1069 1313  Q 1069 891 1326 650  Q 1584 409 2034 409  Q 2484 409 2743 651  Q 3003 894 3003 1313  Q 3003 1734 2745 1975  Q 2488 2216 2034 2216  z M 1403 2484  Q 997 2584 770 2862  Q 544 3141 544 3541  Q 544 4100 942 4425  Q 1341 4750 2034 4750  Q 2731 4750 3128 4425  Q 3525 4100 3525 3541  Q 3525 3141 3298 2862  Q 3072 2584 2669 2484  Q 3125 2378 3379 2068  Q 3634 1759 3634 1313  Q 3634 634 3220 271  Q 2806 -91 2034 -91  Q 1263 -91 848 271  Q 434 634 434 1313  Q 434 1759 690 2068  Q 947 2378 1403 2484  z M 1172 3481  Q 1172 3119 1398 2916  Q 1625 2713 2034 2713  Q 2441 2713 2670 2916  Q 2900 3119 2900 3481  Q 2900 3844 2670 4047  Q 2441 4250 2034 4250  Q 1625 4250 1398 4047  Q 1172 3844 1172 3481  z " transform="scale(0.015625)"/>
       <path id="DejaVuSans-36" d="M 2113 2584  Q 1688 2584 1439 2293  Q 1191 2003 1191 1497  Q 1191 994 1439 701  Q 1688 409 2113 409  Q 2538 409 2786 701  Q 3034 994 3034 1497  Q 3034 2003 2786 2293  Q 2538 2584 2113 2584  z M 3366 4563  L 3366 3988  Q 3128 4100 2886 4159  Q 2644 4219 2406 4219  Q 1781 4219 1451 3797  Q 1122 3375 1075 2522  Q 1259 2794 1537 2939  Q 1816 3084 2150 3084  Q 2853 3084 3261 2657  Q 3669 2231 3669 1497  Q 3669 778 3244 343  Q 2819 -91 2113 -91  Q 1303 -91 875 529  Q 447 1150 447 2328  Q 447 3434 972 4092  Q 1497 4750 2381 4750  Q 2619 4750 2861 4703  Q 3103 4656 3366 4563  z " transform="scale(0.015625)"/>
      </defs>
      <use xlink:href="#DejaVuSans-46"/>
      <use xlink:href="#DejaVuSans-69" x="50.269531"/>
      <use xlink:href="#DejaVuSans-73" x="78.052734"/>
      <use xlink:href="#DejaVuSans-68" x="130.152344"/>
      <use xlink:href="#DejaVuSans-20" x="193.53125"/>
      <use xlink:href="#DejaVuSans-28" x="225.318359"/>
      <use xlink:href="#DejaVuSans-32" x="264.332031"/>
      <use xlink:href="#DejaVuSans-32" x="327.955078"/>
      <use xlink:href="#DejaVuSans-34" x="391.578125"/>
      <use xlink:href="#DejaVuSans-38" x="455.201172"/>
      <use xlink:href="#DejaVuSans-36" x="518.824219"/>
      <use xlink:href="#DejaVuSans-29" x="582.447266"/>
     </g>
    </g>
    <g id="line2d_30">
     <defs>
      <path id="me0b291b164" d="M -2.12132 -2.12132  L -2.12132 2.12132  L 2.12132 2.12132  L 2.12132 -2.12132  z " style="stroke: #ffffff; stroke-width: 0.48; stroke-linejoin: miter"/>
     </defs>
     <g>
      <use xlink:href="#me0b291b164" x="80.707813" y="138.163437" style="fill: #333333; stroke: #ffffff; stroke-width: 0.48; stroke-linejoin: miter"/>
     </g>
    </g>
    <g id="text_25">
     <!-- Other (22510) -->
     <g transform="translate(98.707813 141.663437) scale(0.1 -0.1)">
      <use xlink:href="#DejaVuSans-4f"/>
      <use xlink:href="#DejaVuSans-74" x="78.710938"/>
      <use xlink:href="#DejaVuSans-68" x="117.919922"/>
      <use xlink:href="#DejaVuSans-65" x="181.298828"/>
      <use xlink:href="#DejaVuSans-72" x="242.822266"/>
      <use xlink:href="#DejaVuSans-20" x="283.935547"/>
      <use xlink:href="#DejaVuSans-28" x="315.722656"/>
      <use xlink:href="#DejaVuSans-32" x="354.736328"/>
      <use xlink:href="#DejaVuSans-32" x="418.359375"/>
      <use xlink:href="#DejaVuSans-35" x="481.982422"/>
      <use xlink:href="#DejaVuSans-31" x="545.605469"/>
      <use xlink:href="#DejaVuSans-30" x="609.228516"/>
      <use xlink:href="#DejaVuSans-29" x="672.851562"/>
     </g>
    </g>
   </g>
  </g>
 </g>
 <defs>
  <clipPath id="p66798afa33">
   <rect x="61.707813" y="22.318125" width="357.12" height="266.112"/>
  </clipPath>
 </defs>
</svg>